<svg xmlns="http://www.w3.org/2000/svg" width="112.08" height="112.08" viewBox="0 0 112.08 112.08">
    <defs>
        <filter id="0xf36txa6a" width="112.08" height="112.08" x="0" y="0" filterUnits="userSpaceOnUse">
            <feOffset dy="3"/>
            <feGaussianBlur result="blur" stdDeviation="3"/>
            <feFlood flood-opacity=".161"/>
            <feComposite in2="blur" operator="in"/>
            <feComposite in="SourceGraphic"/>
        </filter>
    </defs>
    <g>
        <g>
            <path fill="none" fill-rule="evenodd" d="M0 0h96v96H0z" transform="translate(8.04 5.04)"/>
            <g filter="url(#0xf36txa6a)" transform="translate(8.04 5.04) matrix(1, 0, 0, 1, -8.04, -5.04)">
                <path fill="#fefefe" fill-rule="evenodd" d="M57.04 10a47.04 47.04 0 1 0 47.04 47.04A47.116 47.116 0 0 0 57.04 10zm2.688 65.376V59.728h15.648c.96 0 1.632-1.152 1.632-2.688 0-1.44-.672-2.688-1.632-2.688H59.728V38.7c0-.96-1.152-1.632-2.688-1.632-1.44 0-2.688.672-2.688 1.632v15.652H38.7c-.768 0-1.632 1.248-1.632 2.688 0 1.536.864 2.688 1.632 2.688h15.652v15.648c0 .768 1.248 1.632 2.688 1.632 1.536 0 2.688-.864 2.688-1.632zM15.568 57.04A41.472 41.472 0 1 1 57.04 98.512 41.421 41.421 0 0 1 15.568 57.04z" transform="translate(-1 -4)"/>
            </g>
        </g>
    </g>
</svg>
