<svg xmlns="http://www.w3.org/2000/svg" width="505.869" height="240" viewBox="0 0 505.869 240">
    <g style="isolation:isolate">
        <g>
            <path fill="#f1bf84" fill-rule="evenodd" d="M274.859 8.159zM120 0a120 120 0 1 0 120 120A119.994 119.994 0 0 0 120 0zm155.588 8.159v223.874h-1.445V8.159h1.445zM338.9 48.606h-18.734V64.22h-3.977V29.028h3.977v15.614H338.9V29.028h3.99V64.22h-3.99zm74.552 10.256h4.629L414 71.01h-4.028zm-49.233-12.7a4.051 4.051 0 0 0-1.867-3.491 7.2 7.2 0 0 0-4.271-1.228 7.432 7.432 0 0 0-4.361 1.228 4.029 4.029 0 0 0-1.829 3.491V49.8h12.329zm-12.327 10a4.278 4.278 0 0 0 1.88 3.645 7.391 7.391 0 0 0 4.309 1.176c2.967 0 4.987-1.176 6.036-3.529l3.5 1.752c-1.777 3.772-4.949 5.652-9.54 5.652a11.093 11.093 0 0 1-6.854-2.1 7.958 7.958 0 0 1-3.21-6.6v-9.9a7.781 7.781 0 0 1 3.21-6.547 12.146 12.146 0 0 1 13.683 0 7.738 7.738 0 0 1 3.2 6.547v7.02h-16.213zm27.737-18.005a15.694 15.694 0 0 1 4.527-.038v3.926a10.3 10.3 0 0 0-3.926-.115c-2.788.652-4.169 2.187-4.169 4.616V64.22h-3.836V46.547a7.91 7.91 0 0 1 2.2-5.652 9.478 9.478 0 0 1 5.204-2.736zm22.161 8.005a4.04 4.04 0 0 0-1.854-3.491 7.228 7.228 0 0 0-4.271-1.228 7.377 7.377 0 0 0-4.361 1.228 4.028 4.028 0 0 0-1.829 3.491V49.8h12.315zm-12.315 10a4.267 4.267 0 0 0 1.867 3.645 7.405 7.405 0 0 0 4.322 1.176c2.967 0 4.987-1.176 6.036-3.529l3.5 1.752q-2.666 5.659-9.54 5.652a11.131 11.131 0 0 1-6.867-2.1 7.981 7.981 0 0 1-3.2-6.6v-9.9a7.77 7.77 0 0 1 3.2-6.547 12.167 12.167 0 0 1 13.7 0 7.76 7.76 0 0 1 3.184 6.547v7.02h-16.2zM325.7 113.043a8.075 8.075 0 0 1-10.013-8.427V77.852h3.824v9.143h5.4v3.811h-5.4v13.811a4.787 4.787 0 0 0 6.189 4.859zm3.3-35.191h3.836V88.12a15.168 15.168 0 0 1 6.189-1.125 10.414 10.414 0 0 1 6.829 2.11 7.716 7.716 0 0 1 3.184 6.471v17.468h-3.875v-17.52a4.022 4.022 0 0 0-1.829-3.478 7.714 7.714 0 0 0-4.258-1.24 15.829 15.829 0 0 0-6.24 1.2v21.036H329zM369.591 95a4.036 4.036 0 0 0-1.867-3.491 7.227 7.227 0 0 0-4.271-1.228 7.377 7.377 0 0 0-4.361 1.228A4.014 4.014 0 0 0 357.263 95v3.619h12.327zm-12.327 10a4.226 4.226 0 0 0 1.88 3.632 7.244 7.244 0 0 0 4.309 1.176c2.967 0 4.987-1.176 6.036-3.517l3.5 1.752c-1.778 3.772-4.949 5.652-9.54 5.652a10.994 10.994 0 0 1-6.854-2.11 7.934 7.934 0 0 1-3.21-6.586V95.09a7.758 7.758 0 0 1 3.21-6.535 12.146 12.146 0 0 1 13.683 0 7.72 7.72 0 0 1 3.184 6.535v7.02h-16.2zM414.5 77.852v3.99H396V94.45h16.228v3.977H396v14.616h-3.98V77.852zm2.916 3.581a2.75 2.75 0 0 1 2.762-2.737 2.47 2.47 0 0 1 1.893.818 2.522 2.522 0 0 1 .844 1.918 2.692 2.692 0 0 1-.844 1.969 2.579 2.579 0 0 1-1.893.793 2.709 2.709 0 0 1-2.762-2.762zm4.77 5.563v26.049h-3.823v-26.05zm13.056 0a15.6 15.6 0 0 1 4.527-.051v3.925a10.845 10.845 0 0 0-3.926-.115c-2.788.665-4.182 2.2-4.182 4.629v17.66h-3.836v-17.66a7.9 7.9 0 0 1 2.212-5.652 9.434 9.434 0 0 1 5.206-2.737zm8.427 18.542q3.146 4.239 7.4 4.079c3.35-.038 5-1.292 4.974-3.785 0-2.084-1.752-3.465-5.256-4.118a17.206 17.206 0 0 1-6.036-1.918 6.228 6.228 0 0 1-3.095-5.627 6.572 6.572 0 0 1 3.2-5.857 11.183 11.183 0 0 1 6.215-1.675 11 11 0 0 1 7.813 3.043l-2.506 2.89a7.19 7.19 0 0 0-5.307-2.2 7.64 7.64 0 0 0-3.76.844 3.1 3.1 0 0 0-1.816 2.954 2.981 2.981 0 0 0 1.969 2.762 17.719 17.719 0 0 0 4.015 1.113c5.563 1.049 8.389 3.657 8.44 7.788a6.678 6.678 0 0 1-2.8 5.7 10.349 10.349 0 0 1-6.049 1.816c-4.4.1-7.877-1.88-10.4-5.934zm29.706 7.506a8.075 8.075 0 0 1-10.013-8.427V77.852h3.823v9.143h5.4v3.811h-5.4v13.811a4.787 4.787 0 0 0 6.189 4.859zM337.276 157.9v3.977h-21v-35.189h3.977V157.9zm17.532-14.079c0-2.545-1.637-4.067-4.91-4.514q-4.968-.71-7.609 2.7l-2.7-2.57a11.831 11.831 0 0 1 11.662-3.708 9.735 9.735 0 0 1 5.179 2.545 7.4 7.4 0 0 1 2.251 5.55v16.931a32.482 32.482 0 0 1-10.806 1.765 9.354 9.354 0 0 1-6.56-2.455 8.509 8.509 0 0 1-2.711-6.573c.026-4.194 2.1-6.918 6.177-8.2a13.625 13.625 0 0 1 10.026.435zm0 5.691a14.891 14.891 0 0 0-7.724-.946c-3.082.473-4.642 2.11-4.655 4.923a5.231 5.231 0 0 0 1.611 4.028 5.741 5.741 0 0 0 3.977 1.407 26.9 26.9 0 0 0 6.79-.524zm9.1 12.366v-23.937a33.3 33.3 0 0 1 10.154-2.11 10.772 10.772 0 0 1 6.7 2.148 7.685 7.685 0 0 1 3.133 6.432v17.469h-3.887v-17.468a4.187 4.187 0 0 0-1.816-3.581 7.162 7.162 0 0 0-4.13-1.2 15.653 15.653 0 0 0-6.317 1.3v20.949zm28.427 2.66q2.609 3.338 7.494 2.583c3.274-.5 4.91-2.033 4.91-4.642v-1.394a13.787 13.787 0 0 1-6.087 1.151 10.577 10.577 0 0 1-6.8-2.174 7.861 7.861 0 0 1-3.159-6.471v-9.719a7.61 7.61 0 0 1 3.107-6.394 10.837 10.837 0 0 1 6.675-2.161 26.134 26.134 0 0 1 7.02 1.125c.908.256 1.944.563 3.082.933v25.055a7.65 7.65 0 0 1-2.251 5.678 9.581 9.581 0 0 1-5.294 2.519q-7.021 1.228-11.407-3.593zm12.4-24.169a15.679 15.679 0 0 0-6.266-1.266 6.92 6.92 0 0 0-4.182 1.228 4.077 4.077 0 0 0-1.765 3.491v9.859a4.077 4.077 0 0 0 1.816 3.491 7.349 7.349 0 0 0 4.22 1.228 16.554 16.554 0 0 0 6.176-1.176zm28.568-4.591v24.437c-1.458.512-2.519.831-3.146.985a26.2 26.2 0 0 1-7.008 1.138 11.055 11.055 0 0 1-6.739-2.161 7.805 7.805 0 0 1-3.095-6.5v-17.9h3.849v17.992a4.069 4.069 0 0 0 1.816 3.5 6.934 6.934 0 0 0 4.169 1.215 16.436 16.436 0 0 0 6.279-1.266V135.78zm20.166 8.043c0-2.545-1.637-4.067-4.91-4.514q-4.968-.71-7.6 2.7l-2.711-2.57a11.844 11.844 0 0 1 11.675-3.708 9.648 9.648 0 0 1 5.166 2.545 7.413 7.413 0 0 1 2.263 5.55v16.931a32.555 32.555 0 0 1-10.818 1.765 9.377 9.377 0 0 1-6.56-2.455 8.553 8.553 0 0 1-2.711-6.573c.038-4.194 2.1-6.918 6.189-8.2a13.589 13.589 0 0 1 10.013.435zm0 5.691a14.844 14.844 0 0 0-7.711-.946q-4.642.71-4.655 4.923a5.231 5.231 0 0 0 1.611 4.028 5.707 5.707 0 0 0 3.964 1.407 26.85 26.85 0 0 0 6.79-.524zm11.905 15.026c1.752 2.225 4.246 3.082 7.506 2.583s4.911-2.033 4.911-4.642v-1.394a13.826 13.826 0 0 1-6.087 1.151 10.553 10.553 0 0 1-6.8-2.174 7.861 7.861 0 0 1-3.159-6.471v-9.719a7.61 7.61 0 0 1 3.107-6.394 10.773 10.773 0 0 1 6.662-2.161 25.984 25.984 0 0 1 7.02 1.125c.921.256 1.944.563 3.095.933v25.055a7.7 7.7 0 0 1-2.251 5.678 9.623 9.623 0 0 1-5.294 2.519q-7.02 1.228-11.407-3.593zm12.426-24.167a15.74 15.74 0 0 0-6.279-1.266 6.88 6.88 0 0 0-4.169 1.228 4.088 4.088 0 0 0-1.778 3.491v9.859a4.059 4.059 0 0 0 1.829 3.491 7.32 7.32 0 0 0 4.22 1.228 16.605 16.605 0 0 0 6.176-1.176zm24.182 3.453a4.022 4.022 0 0 0-1.867-3.491 7.173 7.173 0 0 0-4.271-1.228 7.432 7.432 0 0 0-4.361 1.228 4.062 4.062 0 0 0-1.816 3.491v3.632h12.315zm-12.315 10a4.267 4.267 0 0 0 1.867 3.645 7.391 7.391 0 0 0 4.31 1.176c2.979 0 5-1.176 6.036-3.529l3.5 1.752c-1.778 3.772-4.949 5.652-9.54 5.652a11.093 11.093 0 0 1-6.854-2.1 7.992 7.992 0 0 1-3.21-6.6v-9.9a7.781 7.781 0 0 1 3.21-6.547 12.167 12.167 0 0 1 13.7 0 7.76 7.76 0 0 1 3.184 6.547v7.02h-16.2zM315.4 179.092a2.567 2.567 0 0 1 .793-1.905 2.763 2.763 0 0 1 4.693 1.905 2.729 2.729 0 0 1-.831 1.969 2.629 2.629 0 0 1-1.905.793 2.767 2.767 0 0 1-1.957-.793 2.8 2.8 0 0 1-.793-1.969zm4.77 5.563V210.7h-3.84v-26.045zm6.714 18.555q3.146 4.22 7.4 4.066 5.026-.038 4.962-3.785c0-2.084-1.752-3.466-5.243-4.118a17.288 17.288 0 0 1-6.049-1.918 6.217 6.217 0 0 1-3.082-5.627 6.588 6.588 0 0 1 3.184-5.857 11.3 11.3 0 0 1 6.228-1.675 11.039 11.039 0 0 1 7.813 3.043l-2.506 2.9a7.153 7.153 0 0 0-5.307-2.212 7.606 7.606 0 0 0-3.76.844 3.1 3.1 0 0 0-1.816 2.954 3.015 3.015 0 0 0 1.957 2.775 18.779 18.779 0 0 0 4.028 1.1c5.563 1.049 8.376 3.657 8.44 7.788a6.717 6.717 0 0 1-2.8 5.716 10.536 10.536 0 0 1-6.049 1.816q-6.618.134-10.4-5.946zm51.534 2.852h-3.427l-10.422-23.325V210.7H360.6v-35.176h5.1l10.985 24.885 11-24.885h5.115V210.7h-4.028v-27.963zm39.958-21.462v24.45c-1.471.5-2.519.831-3.159.985a26.125 26.125 0 0 1-7.008 1.125 10.973 10.973 0 0 1-6.739-2.16 7.778 7.778 0 0 1-3.082-6.5v-17.9h3.836v18.005a4.085 4.085 0 0 0 1.816 3.5 6.934 6.934 0 0 0 4.169 1.215 16.436 16.436 0 0 0 6.279-1.266V184.6zm5.87 18.606q3.146 4.22 7.4 4.066 5.026-.038 4.962-3.785c0-2.084-1.752-3.466-5.243-4.118a17.286 17.286 0 0 1-6.049-1.918 6.217 6.217 0 0 1-3.082-5.627 6.587 6.587 0 0 1 3.184-5.857 11.3 11.3 0 0 1 6.228-1.675 11.039 11.039 0 0 1 7.813 3.043l-2.506 2.9a7.153 7.153 0 0 0-5.307-2.212 7.605 7.605 0 0 0-3.76.844 3.1 3.1 0 0 0-1.816 2.954 3.015 3.015 0 0 0 1.957 2.775 18.779 18.779 0 0 0 4.028 1.1c5.563 1.049 8.376 3.657 8.44 7.788a6.717 6.717 0 0 1-2.8 5.716 10.536 10.536 0 0 1-6.049 1.816q-6.618.134-10.4-5.946zm19.386-24.118a2.751 2.751 0 0 1 2.762-2.724 2.822 2.822 0 0 1 2.724 2.724 2.679 2.679 0 0 1-.831 1.969 2.6 2.6 0 0 1-1.892.793 2.709 2.709 0 0 1-2.762-2.762zm4.77 5.563V210.7h-3.823v-26.045zm21.01 6.662c-1.189-2.187-3.2-3.286-6.049-3.286a7.161 7.161 0 0 0-4.31 1.228 3.984 3.984 0 0 0-1.867 3.5v9.744a4.084 4.084 0 0 0 1.867 3.555 7.5 7.5 0 0 0 4.31 1.164q4.968 0 6.189-4.067l3.542 1.726a8.393 8.393 0 0 1-3.977 4.8 11.707 11.707 0 0 1-5.755 1.432 11.047 11.047 0 0 1-6.829-2.11 7.862 7.862 0 0 1-3.184-6.586v-9.565a7.808 7.808 0 0 1 3.184-6.547 11.047 11.047 0 0 1 6.829-2.11q6.426 0 9.284 5.064zm12.7 10.473h-3.977v-26.262h3.977zm-4.846 6.33a2.746 2.746 0 0 1 .818-2.059 2.816 2.816 0 0 1 2.072-.844 2.861 2.861 0 0 1 2.89 2.9 2.847 2.847 0 0 1-.831 2.059 2.788 2.788 0 0 1-2.059.844 2.816 2.816 0 0 1-2.072-.844 2.785 2.785 0 0 1-.821-2.052zM187.123 91.087a8.137 8.137 0 0 0 3.683.87 1.893 1.893 0 0 0 .729-3.645 1.691 1.691 0 0 0-.729-.153 4.408 4.408 0 0 1-1.995-.473 4.831 4.831 0 0 1-1.624-1.33 1.889 1.889 0 0 0-3.005 2.289 8.491 8.491 0 0 0 2.941 2.442zm-2.57 15.729a17.714 17.714 0 0 0 8.875 2.379h17.852V91.343A17.9 17.9 0 0 0 193.427 73.5h-.32a17.825 17.825 0 0 0-7.417 1.765 16.3 16.3 0 0 0-5 3.734c-2.2 2.43-7.685 11.611-7.954 14.693a1.771 1.771 0 0 0 1.957 1.816h1.381a18.029 18.029 0 0 0 4.373 8.056 18.388 18.388 0 0 0 4.105 3.252zm8.875-1.419a14.041 14.041 0 0 1-9.923-4.13 14.224 14.224 0 0 1-3.683-6.381 3.792 3.792 0 0 0-2.57-2.98c.409-.9.946-1.944 1.535-3.043a47.592 47.592 0 0 1 4.719-7.315 12.026 12.026 0 0 1 3.836-2.864 14.579 14.579 0 0 1 2.967-1.049 13.4 13.4 0 0 1 2.084-.307l.844-.038h.192a14.1 14.1 0 0 1 14.054 14.054V105.4zm-8.325 7.6a11.133 11.133 0 0 0-11.113 11.1v10.627l-1.969 1.509-12.877-22.455a8.054 8.054 0 0 0-1.624-2.008l7.43-18.542a9.156 9.156 0 0 0-15.87-8.836l-4.757 6.471a1.858 1.858 0 0 1-1.6.767 1.829 1.829 0 0 1-1.522-.882l-11.342-18.114a24.594 24.594 0 0 0-22.494-11.419c-.307.026-1.483.192-1.483.192a5.249 5.249 0 0 0-4.578-2.685 5.739 5.739 0 0 0-1.228.141 5.26 5.26 0 0 0-4.015 5.051v.013a4.744 4.744 0 0 0 .038.6l4.143 40.793c-1.036 13.9-10.038 21.6-23.159 5.985-4.028-4.783-8.235-10.742-13.043-15.793h1.483a1.753 1.753 0 0 0 1.753-1.812c-.268-3.086-5.754-12.268-7.967-14.7a16.243 16.243 0 0 0-4.987-3.734 17.7 17.7 0 0 0-7.736-1.766H28.734v17.843a17.831 17.831 0 0 0 32.711 9.847 106.8 106.8 0 0 1 6.867 13.274 116.324 116.324 0 0 0 7.852 15.128L66.01 140.78v-16.688a11.131 11.131 0 0 0-11.1-11.1H38.235a11.131 11.131 0 0 0-11.1 11.1v47.813a9.648 9.648 0 0 0 9.6 9.386h51.6a9.61 9.61 0 1 0 0-19.22h-23.3a6.229 6.229 0 0 0 .972-.077 8.009 8.009 0 0 0 4.923-2.57l16.918-18.632a17.927 17.927 0 0 0 15.972-.294l3.964 39.079a1.911 1.911 0 0 0 1.893 1.714h93.581a9.64 9.64 0 0 0 9.6-9.386c0-.077.013-.153.013-.23v-47.583a11.131 11.131 0 0 0-11.1-11.1zm-7.315 18.803v-7.711a7.335 7.335 0 0 1 7.315-7.3h16.675a7.335 7.335 0 0 1 7.3 7.3v37.98h-31.29v-9.885l22.315-17.11a8.09 8.09 0 0 0-9.847-12.839zm-35.87-12.02l-1.739-15.358c.332.013.678.038 1.023.026a12.592 12.592 0 0 0 10.691-5.985l4.425-7.11a.148.148 0 0 1 .141-.077.1.1 0 0 1 .064.013.131.131 0 0 1 .1.09c.013.077 0 .115-.013.128q-7.345 14.158-14.692 28.276zm9.488-10.038l8.568-16.483a3.946 3.946 0 0 0-1.956-5.46 3.844 3.844 0 0 0-1.957-.294 3.912 3.912 0 0 0-2.967 1.841l-4.425 7.11a8.872 8.872 0 0 1-7.494 4.207h-.075a8.859 8.859 0 0 1-7.494-4.092l-11.726-18.2a9.162 9.162 0 0 0-7.724-4.207h-.013a7.758 7.758 0 0 0-.959.051 9.134 9.134 0 0 0-5.2 2.315l-1.266-11.419.2-.051a20.8 20.8 0 0 1 19.731 9.591l11.33 18.107a5.687 5.687 0 0 0 9.4.345l4.757-6.471a5.364 5.364 0 0 1 9.68 3.184 5.572 5.572 0 0 1-.384 1.982l-7.276 18.159a7.941 7.941 0 0 0-2.749-.213zm-47.238-3.363l-4.3-42.263a1.43 1.43 0 0 1 1.087-1.56 1.461 1.461 0 0 1 1.79 1.24l2.225 20v.051l2.63 23.453zm7.366 1.995l-2.774-24.845v-.166a5.366 5.366 0 0 1 2.66-4.655l3.453 30.563zm7.276 1.957l-3.645-32.276a5.379 5.379 0 0 1 3.529 2.379l.32.5 3.427 30.384zm3.811 2.6l4.079 36.1-2.89 5.575-3.71-32.816a40 40 0 0 0 2.521-8.862zm-5.639 15l3.7 32.711-2.724 5.243-3.785-33.951a41.411 41.411 0 0 0 2.809-4.006zm-6.228 7.711l4.1 36.765a1.907 1.907 0 0 0 3.274 1.2 2.516 2.516 0 0 0 .333-.486l26.662-51.292 2.506 4.386-18.274 45.614a1.916 1.916 0 0 0-.141.7v.243a1.91 1.91 0 0 0 1.905 1.905h6.281l2.8 2.813h-28.806l-3.977-39.13a30.175 30.175 0 0 0 3.337-2.721zm25.5-32.136l2.519 22.315-2.89 5.575-3.44-30.332a13.187 13.187 0 0 0 3.81 2.436zm-8.338-8.76l4.821 42.685-2.89 5.575-6.2-54.9zm22.123 35.665l12.544 21.889a8.091 8.091 0 0 0 11.407 2.762v7.008h-22.328a9.633 9.633 0 0 0-9.6 9.6 9.339 9.339 0 0 0 .384 2.685l-2.9-2.916a1.909 1.909 0 0 0-1.343-.563h-4.361zm27.749 16.989l-3.8 2.916-1.765 1.355a5.622 5.622 0 0 1-.5.332 4.324 4.324 0 0 1-2.98.486 4.276 4.276 0 0 1-2.545-1.586 3.316 3.316 0 0 1-.32-.5l-14.041-24.489-2.4-4.194-1.023-1.79a4.288 4.288 0 0 1 4.3-6.394 3.817 3.817 0 0 1 .55.115 4.223 4.223 0 0 1 2.6 2.008l.064.1 14.962 26.113 1.151-.882 1.957-1.509.767-.588 2.532-1.931.5-.384q7.385-5.678 14.77-11.33a4.292 4.292 0 0 1 6.023.78 4.292 4.292 0 0 1-.78 6.023zm-26.125 30.09a5.812 5.812 0 0 1 0-11.624h57.417v5.806a1.393 1.393 0 0 1-.013.23 5.838 5.838 0 0 1-5.806 5.588h-51.6zm-72.852-50.802a117.23 117.23 0 0 1-6.931-13.517l-.128-.281c-.793-1.739-1.6-3.478-2.43-5.2l.345.435c1.407 1.8 2.788 3.555 4.527 5.614a33.487 33.487 0 0 0 9.182 8.031 9.26 9.26 0 0 0-.806.78zm15.972-3.875a12.965 12.965 0 0 0 5.742-5.179c.294-.473.563-.959.818-1.471a25.016 25.016 0 0 0 2.057-6.063l1.176.32 3.465.934 3.939 1.061 3.35.908 3.2.87a37.634 37.634 0 0 1-2.3 7.059 38.041 38.041 0 0 1-2.7 5.038 34.752 34.752 0 0 1-2.877 3.951c-.153.166-.294.345-.435.512a31.676 31.676 0 0 1-3.248 3.184 25.053 25.053 0 0 1-3.568 2.506 21.132 21.132 0 0 1-2.724 1.292 14.006 14.006 0 0 1-10.141.09l4.015-4.412a8.1 8.1 0 0 0 .231-10.6zM61.215 88.862c.6 1.1 1.138 2.148 1.535 3.043a3.788 3.788 0 0 0-1.458.882 3.684 3.684 0 0 0-1.1 2.1 13.948 13.948 0 0 1-1.125 2.9 14.231 14.231 0 0 1-3.811 4.591 14.056 14.056 0 0 1-22.724-11.035V77.289h14.054a13.723 13.723 0 0 1 6.087 1.394 12.505 12.505 0 0 1 2.136 1.3 13.243 13.243 0 0 1 1.7 1.56 46.769 46.769 0 0 1 4.706 7.319zm-9.757 1.573a4.714 4.714 0 0 1 .857-.563 4.636 4.636 0 0 1 2.008-.473 1.863 1.863 0 0 0 1.56-.818 1.844 1.844 0 0 0 .332-1.074 1.934 1.934 0 0 0-.5-1.292 1.911 1.911 0 0 0-1.394-.614H54.3a8.609 8.609 0 0 0-3.095.614c-.192.09-.384.166-.575.269a8.455 8.455 0 0 0-2.941 2.43 1.9 1.9 0 1 0 3.018 2.3 4.361 4.361 0 0 1 .751-.779zm13.581 71.637zm-.192 0H30.934v-37.98a7.335 7.335 0 0 1 7.3-7.3H54.91a7.335 7.335 0 0 1 7.3 7.3v14.092l-11.839-14.066a8.086 8.086 0 1 0-12.366 10.422l20.755 24.654a8.043 8.043 0 0 0 3.453 2.4 8.177 8.177 0 0 0 2.634.478zm-33.913 3.8h57.4a5.812 5.812 0 0 1 0 11.624h-51.6a5.862 5.862 0 0 1-5.806-5.588v-6.038zm34.143-18.414l.934-1.036 12.4-13.657L81 129.923l4.386-4.834a4.3 4.3 0 1 1 6.355 5.78l-4.655 5.115-2.558 2.826-16.408 18.057a3.289 3.289 0 0 1-.422.422 4.524 4.524 0 0 1-1.688.87 4.857 4.857 0 0 1-1.138.128 4.393 4.393 0 0 1-2.66-.985c-.051-.038-.09-.09-.141-.128a3.288 3.288 0 0 1-.422-.422L40.9 132.1a4.312 4.312 0 0 1 3.657-7.059 4.366 4.366 0 0 1 2.928 1.522q6.176 7.366 12.391 14.731l2.046 2.43.294.345 1.931 2.289zM37.839 37.839A116.2 116.2 0 1 1 3.811 120a115.861 115.861 0 0 1 34.028-82.161z" opacity="0.8" transform="translate(-0.041 -133) translate(0.041 133)"/>
        </g>
    </g>
</svg>
