<svg xmlns="http://www.w3.org/2000/svg" width="403.862" height="497" viewBox="0 0 403.862 497">
    <defs>
        <style>
            .cls-2,.cls-3{fill:#f1bf84}.cls-2{fill-rule:evenodd}
        </style>
    </defs>
    <g id="Layer_x0020_1" transform="translate(0)" style="isolation:isolate" opacity="0.8">
        <g id="_2137555293296" transform="translate(0)">
            <path id="Path_3948" d="M158.107 378.508c22.515-2.524 65.323 26.452 110.251 56.943 45.13 30.592 91.674 62.193 115.9 59.467a17.173 17.173 0 0 0 8.582-3.029c21.909-15.447.808-53.712-25.947-102.073-24.837-45.029-53.106-96.015-55.126-143.972-1.615-36.649 26.048-64.919 48.159-87.635 15.346-15.75 28.673-29.279 27.462-40.789-4.24-40.183-36.649-56.943-67.948-73.1C296.829 32.712 273.709 20.8 261.392 0h2.12c11.914 19.486 33.822 30.794 56.741 42.606 31.8 16.457 64.616 33.318 68.957 74.51 1.312 12.519-12.217 26.351-27.866 42.4-22.01 22.515-49.27 50.481-47.755 86.222 2.12 47.553 30.188 98.337 54.924 143.165 27.26 49.27 48.765 88.14 25.342 104.6a19.721 19.721 0 0 1-9.188 3.332c-25.14 2.726-71.885-28.976-117.318-59.77-47.856-32.409-97.328-65.928-115.7-54.52-17.87 11.106-18.981 31.8-19.991 51.794-1.212 22.616-2.322 44.02-28.673 46.948C91.371 482.5 73.4 465.84 52.5 446.456 35.337 430.5 16.76 413.239 0 404.758v-2.12c17.265 8.481 36.246 26.149 53.813 42.4 19.688 18.274 38.265 35.539 48.967 34.327 24.736-2.726 25.745-22.414 26.957-45.13 1.01-19.486 2.12-41.7 20.9-53.308a17.653 17.653 0 0 1 7.47-2.419z" class="cls-2" transform="translate(0)"/>
            <path id="Path_3949" d="M157.8 377.7c22.212-2.524 63.4 24.433 106.616 52.8 49.573 32.409 100.76 65.928 120.549 51.693 21.606-15.548 1.615-53.106-23.726-100.659-23.019-43.212-49.068-92.179-50.885-138.318-1.413-35.236 24.736-62.7 45.635-84.707 14.741-15.649 27.563-29.077 26.351-40.587-4.139-39.577-35.539-56.539-65.928-73C294.406 33.015 271.892 20.8 259.978 0h2.12c11.51 19.486 32.914 31.1 55.125 43.212 30.895 16.659 62.7 33.923 66.938 74.51 1.313 12.418-11.712 26.149-26.856 42.1-20.7 21.808-46.443 48.967-45.029 83.294 1.716 45.736 27.765 94.5 50.683 137.511 25.745 48.361 46.14 86.626 23.12 103.184a20.283 20.283 0 0 1-9.692 3.433c-24.635 2.726-69.462-26.654-112.977-55.125-46.14-30.289-93.9-61.587-112.27-50.38-17.366 10.6-18.779 30.39-20.092 49.371-1.615 21.707-3.029 42.2-28.673 45.029C90.866 477.35 73.1 461.3 52.6 442.72 35.438 427.172 16.659 410.109 0 402.436v-2.12c17.164 7.673 36.346 25.039 53.813 40.991 19.385 17.466 37.659 34.024 48.361 32.914 24.029-2.625 25.443-21.505 26.957-43.212 1.313-18.678 2.827-39.779 21-50.885a18.56 18.56 0 0 1 7.669-2.424z" class="cls-2" transform="translate(0)"/>
            <path id="Path_3950" d="M157.5 376.792c22.01-2.423 61.486 22.515 102.982 48.664 47.755 30.188 97.227 61.385 116.612 47.048 21.4-15.649 2.524-52.5-21.4-99.145-21.2-41.5-45.231-88.443-46.746-132.665-1.111-33.822 23.423-60.476 43.111-81.981 14.135-15.346 26.452-28.673 25.241-40.183-4.139-38.971-34.529-56.337-63.909-73.1C292.084 33.217 270.175 20.7 258.565 0h2.12c11.207 19.486 31.9 31.4 53.611 43.717 29.784 16.962 60.678 34.63 64.818 74.51 1.313 12.418-11.207 26.048-25.745 41.8-19.486 21.2-43.717 47.553-42.505 80.568 1.514 43.818 25.443 90.563 46.544 131.857 23.322 45.534 43.515 84.909 20.8 101.568a20.064 20.064 0 0 1-10.1 3.736c-24.13 2.625-67.039-24.332-108.636-50.683-44.523-28.073-90.562-57.147-108.836-46.041-16.861 10.1-18.577 28.774-20.293 46.947-1.918 20.7-3.736 40.183-28.471 42.909-11.51 1.313-28.976-14.135-49.169-31.9C35.438 423.739 16.659 407.08 0 400.215V398.2c17.164 6.764 36.346 23.726 53.914 39.274 19.082 16.861 37.053 32.712 47.755 31.6 23.221-2.625 24.938-20.5 26.856-41.294 1.615-17.769 3.534-37.861 21.1-48.462a18.571 18.571 0 0 1 7.875-2.526z" class="cls-2" transform="translate(0)"/>
            <path id="Path_3951" d="M157.3 375.984c21.606-2.423 59.467 20.5 99.145 44.524 46.14 27.866 93.794 56.64 112.876 42.3 21-15.851 2.423-53.813-19.082-97.732-19.385-39.678-41.395-84.607-42.606-127.011-1.01-32.409 22.01-58.255 40.486-79.054 13.529-15.245 25.342-28.471 24.13-39.981-4.039-38.366-33.52-56.034-61.991-73.2C289.661 33.419 268.459 20.7 257.151 0h2.019c11 19.486 31.1 31.6 52.1 44.222 28.875 17.265 58.76 35.236 62.8 74.611 1.312 12.317-10.7 25.846-24.534 41.5-18.274 20.5-40.991 46.14-40.082 77.741 1.212 41.9 23.12 86.626 42.4 126.1 22.01 44.726 40.89 83.395 18.577 100.155a21.126 21.126 0 0 1-10.7 3.938c-23.625 2.625-64.515-22.111-104.193-46.14-42.909-25.947-87.231-52.7-105.4-41.9-16.255 9.591-18.375 27.361-20.394 44.524-2.221 19.789-4.442 38.366-28.37 40.991-11.611 1.312-28.673-13.428-48.563-30.491-17.265-14.841-36.245-31.2-52.8-37.154v-2.019c17.063 5.856 36.447 22.515 54.015 37.659 18.678 16.154 36.346 31.3 47.149 30.087 22.414-2.423 24.433-19.486 26.755-39.274 2.019-17.668 4.139-35.943 21.2-46.039a19.916 19.916 0 0 1 8.17-2.527z" class="cls-2" transform="translate(0)"/>
            <path id="Path_3952" d="M157.1 375.075c21.3-2.322 57.448 18.476 95.308 40.385 44.423 25.644 90.361 52.1 109.039 37.659 20.8-15.952 3.433-53.207-16.659-96.419-17.668-37.76-37.659-80.669-38.568-121.155-.808-31 20.7-56.034 37.962-76.227 13.024-15.144 24.231-28.269 23.019-39.779-3.937-37.76-32.409-55.832-59.972-73.3C287.238 33.62 266.743 20.6 255.738 0h2.019c10.7 19.385 30.188 31.7 50.481 44.625 27.866 17.668 56.741 36.044 60.779 74.712 1.313 12.418-10.1 25.745-23.423 41.294-17.971 20.9-38.265 44.625-37.558 74.813 1.01 40.082 20.9 82.789 38.467 120.448 20.394 43.919 38.063 81.78 16.053 98.741a21.93 21.93 0 0 1-11.207 4.24c-23.12 2.524-61.991-19.89-99.852-41.7-41.193-23.827-83.8-48.361-101.871-37.76-15.75 9.087-18.173 25.947-20.5 42.1-2.625 18.779-5.149 36.548-28.37 39.072C89.251 461.9 72.39 447.869 52.9 431.614c-17.361-14.538-36.443-30.49-52.9-35.438v-2.019c16.962 4.947 36.447 21.2 54.116 35.943 18.375 15.346 35.741 29.784 46.443 28.572 21.707-2.423 24.029-18.577 26.755-37.356 2.423-16.76 4.846-34.024 21.3-43.616a21.408 21.408 0 0 1 8.486-2.625z" class="cls-2" transform="translate(0)"/>
            <path id="Path_3953" d="M156.9 373.258c20.5-2.221 53.106 14.539 87.433 32.207 40.991 21 83.395 42.808 101.467 28.168 20.193-16.356 5.351-52.1-11.813-93.592-14.135-34.125-30.188-73-30.592-109.645-.4-28.169 17.366-50.582 33.015-70.371 11.712-14.942 21.909-27.866 20.7-39.375-3.837-36.75-30.39-55.529-56.135-73.8C282.392 33.721 263.411 20.293 252.911 0h2.12c10.4 19.385 28.976 32.51 47.048 45.332 26.048 18.375 53.005 37.457 56.943 75.116 1.212 12.317-9.188 25.543-21.2 40.789-15.447 19.486-32.914 41.6-32.51 69.159.4 36.246 16.356 74.914 30.39 108.938 17.466 42.2 32.611 78.549 11.207 95.813a24.171 24.171 0 0 1-12.62 4.947c-22.01 2.322-56.842-15.548-90.765-32.914-37.861-19.486-76.933-39.577-94.9-29.38-14.64 8.178-17.668 23.019-20.6 37.356-3.534 16.861-6.764 32.712-28.269 35.135-11.615 1.209-28.577-12.013-46.649-26.047C35.64 410.614 16.154 395.47 0 392.744v-2.019c16.558 2.524 35.64 17.467 54.318 32.005 17.668 13.832 34.327 26.856 45.231 25.644 20.192-2.221 23.12-16.76 26.654-33.62 3.029-14.741 6.159-30.087 21.5-38.669a23.927 23.927 0 0 1 9.197-2.827z" class="cls-2" transform="translate(0)"/>
            <path id="Path_3954" d="M156.795 372.349c20.092-2.12 50.986 12.62 83.395 28.068 39.274 18.779 79.962 38.164 97.732 23.524 19.991-16.558 6.462-51.592-9.188-92.28-12.418-32.308-26.553-69.058-26.654-103.789-.2-26.856 16.053-48.462 30.39-67.544 11.207-14.74 20.8-27.563 19.587-39.072-3.736-36.346-29.481-55.529-54.217-74.207C279.969 33.721 261.694 19.991 251.5 0h2.12c10.2 19.183 27.967 32.51 45.332 45.534 25.14 18.88 51.087 38.366 55.025 75.52 1.212 12.317-8.582 25.342-19.991 40.486-14.135 18.779-30.289 40.183-30.087 66.332.2 34.327 14.236 70.876 26.654 103.083 15.851 41.395 29.582 77.034 8.582 94.5a24.749 24.749 0 0 1-13.63 5.25c-21.3 2.423-54.116-13.327-86.121-28.572-36.044-17.164-73.4-35.034-91.27-25.14-14.034 7.673-17.466 21.606-20.7 35.034-3.837 15.851-7.471 30.794-28.269 33.116-11.611 1.212-28.269-11.308-45.938-24.534C35.64 407.484 16.053 392.744 0 391.229v-2.019c16.457 1.414 35.64 15.851 54.318 29.885 17.366 13.024 33.721 25.241 44.625 24.13 19.486-2.221 22.817-15.851 26.654-31.7 3.332-13.832 6.865-28.068 21.606-36.245a26.646 26.646 0 0 1 9.592-2.931z" class="cls-2" transform="translate(0)"/>
            <path id="Path_3955" d="M156.9 371.441c19.587-2.12 48.664 10.6 79.155 23.928 37.659 16.558 76.63 33.62 94 18.88 19.789-16.76 7.572-51.289-6.462-91.169-10.8-30.491-23.019-65.02-22.918-97.833 0-25.342 14.841-46.14 27.967-64.515 10.5-14.64 19.587-27.361 18.375-38.971-3.736-35.842-28.471-55.529-52.4-74.611C277.546 33.62 260.079 19.688 250.084 0h2.12c9.894 18.88 26.957 32.51 43.515 45.635 24.231 19.284 49.371 39.274 53.207 75.924 1.312 12.317-7.976 25.342-18.779 40.385-12.923 18.072-27.563 38.568-27.664 63.3 0 32.409 12.116 66.837 22.818 97.227 14.337 40.587 26.755 75.621 5.957 93.188-3.938 3.433-8.885 5.25-14.64 5.856-20.7 2.221-51.39-11.207-81.376-24.332-34.327-15.043-69.866-30.592-87.736-21-13.428 7.269-17.063 20.193-20.7 32.611-4.24 14.943-8.279 28.976-28.169 31.1-11.611 1.312-27.967-10.4-45.332-22.818C34.832 403.749 15.75 390.018 0 389.816V387.9c16.356.3 35.64 14.135 54.419 27.563 16.962 12.216 33.116 23.726 44.02 22.515 18.678-2.019 22.313-14.841 26.654-29.683 3.635-12.923 7.471-26.149 21.606-33.822a27.922 27.922 0 0 1 10.201-3.032z" class="cls-2" transform="translate(0)"/>
            <path id="Path_3956" d="M157.1 370.532c18.981-2.12 46.14 8.683 74.712 19.89 36.044 14.236 73.3 28.976 90.361 14.034 19.587-16.962 8.784-50.784-3.736-89.857-9.087-28.673-19.486-61.082-19.183-91.876.2-23.928 13.731-43.919 25.544-61.587 9.894-14.539 18.375-27.159 17.164-38.77-3.635-35.539-27.563-55.731-50.683-75.217C275.123 33.419 258.464 19.385 248.67 0h2.12c9.692 18.577 25.947 32.308 41.7 45.635 23.423 19.789 47.553 40.183 51.39 76.529 1.313 12.317-7.471 25.14-17.466 40.082-11.712 17.366-25.039 37.154-25.241 60.476-.3 30.491 10 62.8 19.082 91.27 12.721 39.779 23.726 74.106 3.13 91.977-4.24 3.736-9.591 5.654-15.851 6.361-19.89 2.221-48.563-9.087-76.429-20.092-32.611-12.923-66.332-26.25-84.1-16.861-12.822 6.764-16.861 18.779-20.7 30.289-4.644 13.832-9.087 26.957-28.169 29.077-11.712 1.313-27.765-9.692-44.726-21.2C34.832 400.821 15.548 387.7 0 388.705v-1.918c16.154-1.01 35.64 12.216 54.419 25.14 16.76 11.409 32.51 22.111 43.515 20.9 17.87-1.918 21.909-13.933 26.553-27.765 4.038-11.914 8.178-24.231 21.707-31.4a29.154 29.154 0 0 1 10.906-3.13z" class="cls-2" transform="translate(0)"/>
            <path id="Path_3957" d="M2.827 383.455c1.01-.1 2.12-.2 3.13-.2 14.539-1.111 31.8 8.683 48.462 18.072 15.75 8.885 30.592 17.265 41.9 16.053 15.75-1.817 21.1-11.712 26.856-22.111 4.846-8.986 9.894-18.274 21.5-24.029 17.87-8.784 46.241-2.019 73.7 4.442 31.4 7.471 63.909 15.144 80.265-.3 19.183-18.072 12.721-50.077 5.25-87.131-4.745-23.928-9.692-48.664-8.784-73.2.707-19.688 10.1-36.952 18.375-52.3 7.875-14.438 14.64-26.856 13.428-38.77-3.736-34.933-25.241-56.943-46.14-78.347C267.348 31.9 253.416 17.668 244.228 0h2.221c8.986 17.063 22.515 30.894 35.64 44.322C303.19 65.928 325 88.241 328.733 123.78c1.313 12.519-5.957 25.846-13.529 39.981-8.178 15.043-17.467 32.106-18.173 51.289-1.01 24.332 3.938 48.967 8.784 72.794 7.471 37.659 14.034 70.169-5.856 88.948-17.164 16.154-50.077 8.279-81.981.808-27.159-6.462-55.226-13.125-72.491-4.644-11 5.452-15.952 14.539-20.7 23.221-5.957 10.9-11.51 21.2-28.269 23.12-11.914 1.313-27.058-7.269-43.01-16.255-16.457-9.289-33.419-18.88-47.452-17.87q-3.029.152-6.058.606v-1.918c.911-.102 1.819-.304 2.829-.405z" class="cls-2" transform="translate(0)"/>
            <path id="Path_3958" d="M2.827 382.445c1.918-.2 3.837-.4 5.755-.5 13.832-.606 29.986 7.774 45.635 15.952 15.447 7.976 30.087 15.548 41.5 14.337 15.144-1.716 21-10.7 27.159-20.293 5.149-7.976 10.4-16.255 21.3-21.505 17.567-8.38 43.919-3.837 69.462.5 29.986 5.149 60.981 10.4 77.236-5.25 19.082-18.577 14.236-50.077 8.582-86.727-3.332-21.707-6.865-44.121-5.755-66.534.909-18.173 8.986-34.529 16.154-48.967 6.764-13.832 13.226-26.856 12.015-38.871-3.736-35.034-24.635-57.952-44.928-80.164C264.521 30.794 251.7 16.861 242.714 0h2.221c8.784 16.255 21.3 29.885 33.419 43.111 20.5 22.414 41.6 45.534 45.332 81.275 1.313 12.519-5.25 25.846-12.216 39.981-7.067 14.236-15.043 30.39-15.851 48.159-1.111 22.212 2.322 44.524 5.654 66.13 5.755 37.154 10.7 69.159-9.188 88.443-16.861 16.356-48.361 10.9-78.751 5.755-25.241-4.341-51.39-8.784-68.352-.707-10.4 5.048-15.548 13.125-20.6 20.9-6.361 9.894-12.418 19.284-28.471 21-11.911 1.413-26.752-6.361-42.502-14.438-15.447-8.077-31.4-16.356-44.726-15.75-2.928.2-5.856.4-8.683.808v-1.918c.909-.102 1.918-.202 2.827-.304z" class="cls-2" transform="translate(0)"/>
            <path id="Path_3959" d="M2.12 381.335a67.165 67.165 0 0 1 8.986-.606c13.125-.3 28.27 6.865 42.909 13.731 15.245 7.067 29.582 13.832 41.193 12.519 14.438-1.514 20.7-9.692 27.361-18.375 5.351-6.966 10.9-14.236 21.1-18.981 17.164-7.875 41.395-5.553 64.818-3.231 28.673 2.726 58.356 5.654 74.51-10.4 19.183-19.183 15.952-50.481 12.216-86.626-2.019-19.486-4.139-39.476-2.928-59.467 1.111-16.659 7.875-32.005 13.832-45.534 6.159-13.933 11.914-27.058 10.7-39.274-3.736-35.337-24.231-59.366-44.121-82.587C261.493 29.279 249.882 15.75 241.2 0h2.12c8.582 15.144 19.89 28.37 30.794 41.193 20.092 23.423 40.789 47.654 44.524 83.7 1.313 12.721-4.543 26.149-10.8 40.284-6.159 14.034-12.62 28.471-13.63 44.827-1.212 19.789.808 39.779 2.827 59.063 3.837 36.75 7.067 68.452-12.721 88.241-16.76 16.76-46.847 13.832-75.924 11-23.221-2.322-47.25-4.644-63.909 3.13-9.793 4.543-15.245 11.611-20.394 18.375-6.966 8.986-13.428 17.467-28.673 19.082-12.115 1.414-26.755-5.452-42.2-12.721-14.438-6.764-29.38-13.832-42-13.529-3.837.1-7.572.4-11.207.808v-1.918a15.059 15.059 0 0 1 2.113-.2z" class="cls-2" transform="translate(0)"/>
            <path id="Path_3960" d="M0 380.123c4.442-.4 9.087-.707 13.731-.707 12.317.1 26.25 5.957 39.88 11.611 14.942 6.26 29.178 12.115 40.991 10.8 13.933-1.514 20.7-8.784 27.866-16.558 5.553-5.957 11.308-12.216 20.7-16.457 16.558-7.37 38.568-7.067 59.77-6.765 27.563.4 56.034.808 72.188-15.851 19.385-19.89 17.87-51.087 16.154-87.232-.808-16.861-1.615-34.327-.3-51.693 1.111-15.043 6.361-28.673 11.51-41.8 5.452-14.034 10.6-27.26 9.289-39.779-3.837-36.245-24.13-61.688-43.818-86.222C258.06 27.058 247.762 14.236 239.584 0h2.216c7.976 13.731 17.971 26.149 27.664 38.265C289.257 63 309.753 88.645 313.589 125.5c1.414 12.923-3.837 26.452-9.389 40.688-5.048 13.024-10.3 26.452-11.409 41.294-1.312 17.164-.4 34.529.4 51.39 1.615 35.034 3.231 68.15-16.76 88.746-16.659 17.164-45.534 16.76-73.5 16.356-21.1-.3-42.808-.606-58.962 6.664-9.087 4.038-14.741 10.1-20.192 16.053-7.37 7.976-14.337 15.447-28.976 17.063-12.317 1.414-26.654-4.644-41.9-11-13.428-5.553-27.26-11.308-39.173-11.409A122.347 122.347 0 0 0 0 382.143z" class="cls-2" transform="translate(0)"/>
            <path id="Path_3961" d="M238.372 0c5.654 8.582 11.712 16.962 17.567 25.14 21.3 29.582 43.313 60.174 47.654 101.467 1.413 14.034-2.423 28.269-6.563 43.313-2.827 10.4-5.755 21.2-6.966 32.409-1.111 10.3-1.918 20.7-2.625 30.693-2.625 36.851-5.149 71.582-26.654 95.107-17.365 19.081-45.028 24.129-71.785 29.177-15.851 2.827-32.106 5.856-46.039 11.712-7.471 3.13-13.226 7.168-18.88 11.106-8.683 6.058-16.861 11.813-30.289 13.327-13.327 1.413-28.37-3.029-43.01-7.37-10.8-3.13-22.01-6.462-32.005-7.168-6.361-.5-12.62-.606-18.779-.5v-2.019c6.159 0 12.418.1 18.88.606 10.3.707 21.505 4.039 32.409 7.269 14.438 4.24 29.38 8.683 42.3 7.269s21-7.067 29.481-13.024c5.654-3.937 11.51-8.077 19.183-11.308 14.135-5.856 30.491-8.885 46.342-11.813 26.553-4.947 53.914-10 70.876-28.572 21-23.019 23.524-57.448 26.048-94 .808-10 1.514-20.394 2.625-30.693 1.313-11.308 4.24-22.212 7.067-32.712 4.038-14.942 7.875-28.976 6.462-42.606-4.24-40.789-26.149-71.178-47.25-100.559-6.155-8.482-12.414-17.265-18.27-26.251z" class="cls-2" transform="translate(0)"/>
            <path id="Path_3962" d="M236.555 0c2.019 2.928 4.139 5.755 6.159 8.683 25.039 34.731 50.784 70.775 55.832 118.429 1.615 15.447-1.716 30.794-5.149 47.048-1.716 8.38-3.635 16.962-4.745 25.644-.5 4.039-1.01 7.976-1.514 11.914-5.25 40.991-10.1 79.558-34.125 106.717-18.88 21.4-47.957 30.087-76.025 38.366-11.51 3.433-23.524 6.966-34.529 11.409a156.344 156.344 0 0 0-16.962 8.279c-9.793 5.351-18.981 10.3-32.308 11.813-14.438 1.514-30.188-2.12-45.534-5.654-9.188-2.12-17.971-4.139-26.351-5.048-6.865-.707-13.63-1.313-20.192-1.817H0v-1.918h1.212c6.563.5 13.428 1.111 20.293 1.817 8.481 1.01 17.668 3.13 26.553 5.149 15.144 3.433 30.794 7.067 44.928 5.553 12.923-1.414 22.01-6.361 31.6-11.611a160.1 160.1 0 0 1 17.164-8.38c11.106-4.442 23.12-7.976 34.731-11.409 27.866-8.279 56.539-16.76 75.116-37.861 23.625-26.654 28.471-65.02 33.62-105.607.5-3.938 1.01-7.976 1.615-11.914 1.111-8.784 2.928-17.466 4.745-25.846 3.433-16.053 6.663-31.3 5.048-46.443-4.945-47.149-30.589-82.89-55.425-117.52-2.221-3.029-4.341-6.159-6.563-9.188a2.113 2.113 0 0 1-.4-.606z" class="cls-2" transform="translate(0)"/>
            <path id="Path_3963" d="M232.113 0a228 228 0 0 1 56.337 128.222C301.474 252.608 213.434 364.575 92.179 377.9A214.777 214.777 0 0 1 0 368.008v-2.019a212.333 212.333 0 0 0 91.977 10C212.122 362.758 299.454 251.7 286.531 128.424A225.683 225.683 0 0 0 229.588 0z" class="cls-2" transform="translate(0)"/>
            <path id="Path_3964" d="M531.636 1344.1a16.024 16.024 0 0 1 12.015 3.635 17.022 17.022 0 0 1 2.423 23.524 16.208 16.208 0 0 1-11 6.158 16.021 16.021 0 0 1-12.015-3.635 17.021 17.021 0 0 1-2.423-23.524 16.21 16.21 0 0 1 11-6.158zm10.9 4.947a14.456 14.456 0 0 0-10.7-3.231 14.9 14.9 0 0 0-9.894 5.553 15.317 15.317 0 0 0-3.13 11.005 14.682 14.682 0 0 0 16.053 13.327 14.676 14.676 0 0 0 9.894-5.553 15.317 15.317 0 0 0 3.13-11 14.907 14.907 0 0 0-5.349-10.101z" class="cls-3" transform="translate(-464.799 -1208.306)"/>
            <path id="Path_3965" d="M465.714 1268.8a23.411 23.411 0 0 1 17.366 5.25 24.081 24.081 0 0 1 8.683 16.356 24.524 24.524 0 0 1-5.048 17.87 23.407 23.407 0 0 1-15.952 8.885 23 23 0 0 1-17.366-5.25 23.642 23.642 0 0 1-8.683-16.255 24.393 24.393 0 0 1 5.048-17.87 23.912 23.912 0 0 1 15.952-8.986zm16.356 6.663a21.73 21.73 0 0 0-31 3.433 23.179 23.179 0 0 0 3.332 31.7 21.374 21.374 0 0 0 16.154 4.846 21.874 21.874 0 0 0 14.841-8.279 22.918 22.918 0 0 0-3.332-31.7z" class="cls-3" transform="translate(-399.684 -1140.578)"/>
            <path id="Path_3966" d="M409.822 1206.416a29.25 29.25 0 0 1 22.01 6.663 30.115 30.115 0 0 1 10.9 20.6 30.919 30.919 0 0 1-6.361 22.414 29.7 29.7 0 0 1-20.091 11.308 29.25 29.25 0 0 1-22.01-6.663 30.114 30.114 0 0 1-10.9-20.6 30.909 30.909 0 0 1 6.462-22.515 29.523 29.523 0 0 1 19.99-11.207zm20.9 7.976a27.678 27.678 0 0 0-20.7-6.26 28.217 28.217 0 0 0-18.88 10.6 29.551 29.551 0 0 0 4.24 40.688 27.207 27.207 0 0 0 20.7 6.159 27.825 27.825 0 0 0 18.88-10.6 29.412 29.412 0 0 0-4.24-40.587z" class="cls-3" transform="translate(-344.499 -1084.453)"/>
            <path id="Path_3967" d="M353.986 1144.028a35.1 35.1 0 0 1 26.452 7.972 37.624 37.624 0 0 1 5.452 52 35.7 35.7 0 0 1-24.231 13.529 35.1 35.1 0 0 1-26.452-7.976 37.624 37.624 0 0 1-5.452-52 35.321 35.321 0 0 1 24.231-13.525zm25.443 9.289a33.876 33.876 0 0 0-48.361 5.351 36.047 36.047 0 0 0 5.149 49.573 33.876 33.876 0 0 0 48.361-5.351 36.047 36.047 0 0 0-5.149-49.573z" class="cls-3" transform="translate(-289.269 -1028.325)"/>
            <path id="Path_3968" d="M298.362 1080.95a41.9 41.9 0 0 1 31.1 9.389 44.119 44.119 0 0 1 6.361 60.88 41.48 41.48 0 0 1-59.467 6.563 43.371 43.371 0 0 1-15.447-29.077 44.069 44.069 0 0 1 9.087-31.8 41.772 41.772 0 0 1 28.366-15.955zm29.986 10.7a39.43 39.43 0 0 0-29.784-8.885 39.957 39.957 0 0 0-27.26 15.245 42.2 42.2 0 0 0-8.683 30.49 41.611 41.611 0 0 0 14.842 27.865 39.493 39.493 0 0 0 29.784 8.986 40.344 40.344 0 0 0 27.26-15.245 42.424 42.424 0 0 0-6.159-58.457z" class="cls-3" transform="translate(-234.352 -971.608)"/>
            <path id="Path_3969" d="M186.636 955.22a53.871 53.871 0 0 1 40.183 12.115 56.989 56.989 0 0 1 8.178 78.75 53.627 53.627 0 0 1-76.832 8.481 56.988 56.988 0 0 1-8.178-78.75 54.286 54.286 0 0 1 36.649-20.596zm39.072 13.529a51.468 51.468 0 0 0-38.871-11.712 52.036 52.036 0 0 0-35.539 19.89 55.234 55.234 0 0 0-11.409 39.779 54.258 54.258 0 0 0 19.385 36.447 51.6 51.6 0 0 0 38.87 11.712 52.419 52.419 0 0 0 35.539-19.89 55.233 55.233 0 0 0 11.409-39.779 54.258 54.258 0 0 0-19.384-36.447z" class="cls-3" transform="translate(-123.938 -858.498)"/>
            <path id="Path_3970" d="M130.8 892.834a59.714 59.714 0 0 1 44.625 13.428A63.478 63.478 0 0 1 184.614 994a59.888 59.888 0 0 1-85.515 9.389 63.478 63.478 0 0 1-9.188-87.736 60.129 60.129 0 0 1 40.889-22.819zm43.515 14.841A57.789 57.789 0 0 0 131 894.55a58.985 58.985 0 0 0-39.779 22.212A61.675 61.675 0 0 0 78.5 961.286a60.426 60.426 0 0 0 21.707 40.688 57.788 57.788 0 0 0 43.313 13.125 58.985 58.985 0 0 0 39.78-22.211 61.676 61.676 0 0 0 12.721-44.525 60.427 60.427 0 0 0-21.705-40.688z" class="cls-3" transform="translate(-68.709 -802.371)"/>
            <path id="Path_3971" d="M60.073 704.024a78.122 78.122 0 0 1 58.255 17.567 82.728 82.728 0 0 1 12.015 114.491 78.378 78.378 0 0 1-53.308 29.784A77.288 77.288 0 0 1 18.779 848.3 80.377 80.377 0 0 1 0 825.987v-3.635a78.672 78.672 0 0 0 19.789 24.635 76.453 76.453 0 0 0 109.241-12.015 81.36 81.36 0 0 0 16.76-58.457 80.175 80.175 0 0 0-28.471-53.51 76.212 76.212 0 0 0-57.044-17.164 77.065 77.065 0 0 0-52.2 29.178A86.438 86.438 0 0 0 0 747.64v-3.635a76.542 76.542 0 0 1 6.764-10.1 78.493 78.493 0 0 1 53.309-29.881z" class="cls-3" transform="translate(0 -632.543)"/>
            <path id="Path_3972" d="M59.467 641.372a83.561 83.561 0 0 1 62.8 18.981 87.757 87.757 0 0 1 31.3 58.861 88.9 88.9 0 0 1-18.375 64.414 85.057 85.057 0 0 1-57.552 32.208 83.978 83.978 0 0 1-62.8-18.981A87.942 87.942 0 0 1 0 781.1v-3.029a87.578 87.578 0 0 0 15.952 17.466 82.459 82.459 0 0 0 117.823-13.024 87.506 87.506 0 0 0-12.62-120.852 82.1 82.1 0 0 0-61.587-18.577 83.08 83.08 0 0 0-56.236 31.6A46.328 46.328 0 0 0 0 679.132V676.1c.606-.808 1.313-1.716 1.918-2.524a84.888 84.888 0 0 1 57.549-32.204z" class="cls-3" transform="translate(0 -576.151)"/>
            <path id="Path_3973" d="M58.76 578.984a89.389 89.389 0 0 1 67.34 20.294 93.934 93.934 0 0 1 33.62 63.2 95.417 95.417 0 0 1-19.789 69.058 90.893 90.893 0 0 1-61.587 34.428A89.389 89.389 0 0 1 11 745.673a91.85 91.85 0 0 1-11-10.7v-2.726a85.88 85.88 0 0 0 12.115 12.115 88.233 88.233 0 0 0 66.029 19.89 89.141 89.141 0 0 0 60.476-33.822 93.531 93.531 0 0 0 19.385-67.847 92.7 92.7 0 0 0-32.914-61.991A88.509 88.509 0 0 0 0 612.706v-2.726a90.337 90.337 0 0 1 58.76-30.996z" class="cls-3" transform="translate(0 -520.023)"/>
            <path id="Path_3974" d="M57.448 453.522a101.9 101.9 0 0 1 76.429 23.019 106.792 106.792 0 0 1 38.164 71.683 108.121 108.121 0 0 1-22.414 78.347 103.138 103.138 0 0 1-69.967 39.173 101.9 101.9 0 0 1-76.429-23.018C2.12 641.817 1.01 640.908 0 640v-2.423c1.413 1.312 2.827 2.524 4.341 3.736a100.512 100.512 0 0 0 143.871-15.75 106.7 106.7 0 0 0 22.111-77.135 105.679 105.679 0 0 0-37.558-70.573A100.415 100.415 0 0 0 0 481.691v-2.423a102.626 102.626 0 0 1 57.448-25.746z" class="cls-3" transform="translate(0 -407.18)"/>
            <path id="Path_3975" d="M56.741 390.178a108.29 108.29 0 0 1 81.073 24.433 113.674 113.674 0 0 1 40.386 75.923 114.622 114.622 0 0 1-23.827 83.092A108.249 108.249 0 0 1 0 591.194v-2.221l.4.3a106.754 106.754 0 0 0 152.655-16.76 112.754 112.754 0 0 0 23.423-81.779 111.916 111.916 0 0 0-39.778-74.71 106.551 106.551 0 0 0-136.7.3V414a109.38 109.38 0 0 1 56.741-23.822z" class="cls-3" transform="translate(0 -350.197)"/>
            <path id="Path_3976" d="M56.135 327.79a114 114 0 0 1 85.515 25.745 119.848 119.848 0 0 1 42.707 80.265 121.018 121.018 0 0 1-25.14 87.635 115.216 115.216 0 0 1-78.246 43.818A113.684 113.684 0 0 1 0 543.042v-2.221a112.4 112.4 0 0 0 80.77 22.716 113.9 113.9 0 0 0 77.135-43.212A119.608 119.608 0 0 0 182.641 434a118.09 118.09 0 0 0-42.1-79.053 112.082 112.082 0 0 0-84.2-25.443A113.275 113.275 0 0 0 0 352.122V349.9a114.613 114.613 0 0 1 56.135-22.11z" class="cls-3" transform="translate(0 -294.069)"/>
            <path id="Path_3977" d="M55.428 264.714a120.441 120.441 0 0 1 90.058 27.159 126.427 126.427 0 0 1 45.029 84.506 127.6 127.6 0 0 1-26.452 92.381 121.273 121.273 0 0 1-82.384 46.04A119.915 119.915 0 0 1 0 494.1v-2.12a118.4 118.4 0 0 0 81.477 21.1 119.686 119.686 0 0 0 81.174-45.433A125.787 125.787 0 0 0 188.8 376.58a124.56 124.56 0 0 0-44.322-83.294A118.671 118.671 0 0 0 0 287.632v-2.12a121.214 121.214 0 0 1 55.428-20.798z" class="cls-3" transform="translate(0 -237.353)"/>
            <path id="Path_3978" d="M54.823 202.059a126.105 126.105 0 0 1 94.6 28.471 132.9 132.9 0 0 1 47.25 88.746 134.3 134.3 0 0 1-27.864 97.024 127.73 127.73 0 0 1-86.525 48.462A125.592 125.592 0 0 1 0 445.277v-2.12a124.655 124.655 0 0 0 82.082 19.89A126.365 126.365 0 0 0 167.5 415.19a132.3 132.3 0 0 0 27.462-95.712 130.726 130.726 0 0 0-46.645-87.534A124.352 124.352 0 0 0 0 223.665v-2.12a125.786 125.786 0 0 1 54.823-19.486z" class="cls-3" transform="translate(0 -180.957)"/>
            <path id="Path_3979" d="M54.116 138.983a132.412 132.412 0 0 1 99.145 29.885 139.3 139.3 0 0 1 49.573 93.087 140.764 140.764 0 0 1-29.178 101.669c-21.707 27.563-53.611 46.645-90.664 50.683A131.37 131.37 0 0 1 0 395.932v-2.019a129.65 129.65 0 0 0 82.789 18.678 132.424 132.424 0 0 0 89.554-50.077 138.877 138.877 0 0 0 28.774-100.458 137.2 137.2 0 0 0-48.866-91.775A130.688 130.688 0 0 0 0 159.478v-2.12a133.6 133.6 0 0 1 54.116-18.375z" class="cls-3" transform="translate(0 -124.242)"/>
            <path id="Path_3980" d="M52.8 13.941C93.289 9.4 131.655 22.22 161.035 46.552a151.366 151.366 0 0 1 54.015 101.467 153.01 153.01 0 0 1-31.8 110.958A145.377 145.377 0 0 1 84.3 314.4 143.351 143.351 0 0 1 0 297.948v-2.019a142.079 142.079 0 0 0 84.1 16.76c39.981-4.442 74.409-25.039 97.833-54.823a151.007 151.007 0 0 0 31.4-109.645 149.652 149.652 0 0 0-53.409-100.357A142.891 142.891 0 0 0 0 32.316V30.3a143.481 143.481 0 0 1 52.8-16.359z" class="cls-3" transform="translate(0 -11.72)"/>
            <path id="Path_3981" d="M107.222 0a151.787 151.787 0 0 1 57.75 29.885c30.592 25.241 51.693 62.5 56.236 105.809a159.792 159.792 0 0 1-33.116 115.6 151.937 151.937 0 0 1-103.184 57.75A149.628 149.628 0 0 1 0 293.4v-2.019a147.9 147.9 0 0 0 84.707 15.851c41.7-4.543 77.64-26.048 102.073-57.044a157.905 157.905 0 0 0 32.712-114.39 156.121 156.121 0 0 0-55.63-104.6A149.747 149.747 0 0 0 99.65 0zM37.659 0A149.264 149.264 0 0 0 0 13.428V11.51A153.459 153.459 0 0 1 29.986 0z" class="cls-3" transform="translate(0)"/>
            <path id="Path_3982" d="M127.112 0a158.729 158.729 0 0 1 41.7 24.938 164.011 164.011 0 0 1 58.558 110.049 165.982 165.982 0 0 1-34.428 120.246 158.111 158.111 0 0 1-107.326 60.073A156.233 156.233 0 0 1 0 300.464v-2.019a153.867 153.867 0 0 0 85.414 15.144 156.524 156.524 0 0 0 106.111-59.467 164.039 164.039 0 0 0 34.125-118.934A162.708 162.708 0 0 0 167.7 26.25 157.017 157.017 0 0 0 122.265 0zM14.841 0Q7.269 2.877 0 6.361V4.442C3.231 2.827 6.563 1.413 10 0z" class="cls-3" transform="translate(0)"/>
            <path id="Path_3983" d="M155.28 0a165.362 165.362 0 0 1 21.3 15.043 176.87 176.87 0 0 1 63.1 118.53 179.132 179.132 0 0 1-37.154 129.636c-27.664 35.135-68.352 59.568-115.6 64.717A166.9 166.9 0 0 1 0 314.4v-1.918a166.223 166.223 0 0 0 86.727 13.731c46.746-5.149 87.131-29.279 114.491-64.111a177.263 177.263 0 0 0 36.75-128.323 175.524 175.524 0 0 0-62.5-117.318A164.872 164.872 0 0 0 151.847 0z" class="cls-3" transform="translate(0)"/>
            <path id="Path_3984" d="M187.891 0l.3.2c38.063 31.4 64.313 77.741 69.967 131.352a198.678 198.678 0 0 1-41.193 143.569c-30.592 38.971-75.722 65.928-128.121 71.683A184.692 184.692 0 0 1 0 334.892v-1.817a184.311 184.311 0 0 0 88.746 12.015c51.794-5.755 96.52-32.409 126.91-71.078a196.809 196.809 0 0 0 40.789-142.256 194.638 194.638 0 0 0-69.26-130.14c-.707-.5-1.313-1.111-2.019-1.615z" class="cls-3" transform="translate(0)"/>
            <path id="Path_3985" d="M206.872 0a208.976 208.976 0 0 1 63.505 130.241A210.812 210.812 0 0 1 226.661 283.1c-32.611 41.5-80.669 70.27-136.4 76.328a195.758 195.758 0 0 1-90.26-11V346.6a196.265 196.265 0 0 0 90.057 11.11c55.226-6.058 102.881-34.529 135.189-75.722a208.869 208.869 0 0 0 43.414-151.545A207.443 207.443 0 0 0 204.247 0z" class="cls-3" transform="translate(0)"/>
        </g>
    </g>
</svg>
