<svg xmlns="http://www.w3.org/2000/svg" width="287.056" height="216.881" viewBox="0 0 287.056 216.881">
    <defs>
        <style>
            .cls-2,.cls-3{fill:#f1bf84}.cls-2{fill-rule:evenodd}
        </style>
    </defs>
    <g id="_2201483817968" style="isolation:isolate" opacity="0.8" transform="translate(0)">
        <g id="Group_1532">
            <path id="Path_4048" d="M2.3 216.813a68.815 68.815 0 0 0 8.755-24.974c11.769-78.51 47.795-138.5 101.474-169.22 40.762-23.4 88.987-27.127 129.032-9.76 16.506 7.033 31.576 16.936 45.5 28.562v-2.727c-13.779-11.2-28.562-20.812-44.781-27.844-40.618-17.51-89.418-13.779-130.754 9.9-54.254 31-90.566 91.714-102.479 170.8A67.05 67.05 0 0 1 0 216.813z" class="cls-2" transform="translate(0 0.068)"/>
            <path id="Path_4049" d="M2.3 256.615a67.425 67.425 0 0 0 8.325-23.539C23.108 157.437 58.99 99.165 111.378 69.311c40.906-23.539 87.7-27.27 128.458-10.334 16.506 6.889 31.576 16.506 45.642 27.844v-2.583a191.738 191.738 0 0 0-44.924-27.27c-41.193-17.08-88.7-13.348-130.18 10.478-52.963 30.283-89.132 88.986-101.762 165.2A67.912 67.912 0 0 1 0 256.615z" class="cls-2" transform="translate(1.579 -39.734)"/>
            <path id="Path_4050" d="M2.3 297.53a76.179 76.179 0 0 0 7.894-22.1c13.2-73.056 48.8-129.175 99.9-158.455 40.762-23.108 87.265-26.983 127.884-10.765a189.825 189.825 0 0 1 45.922 27.124v-2.583a186.108 186.108 0 0 0-45.213-26.551c-41.193-16.506-88.413-12.487-129.462 11.052C57.411 144.673 21.529 201.366 8.181 275A72.434 72.434 0 0 1 0 297.53z" class="cls-2" transform="translate(3.158 -80.649)"/>
            <path id="Path_4051" d="M2.3 338.723a76.721 76.721 0 0 0 7.46-20.668c13.922-70.329 49.23-124.582 99.178-153 40.331-22.821 86.691-26.983 127.309-11.339a186.232 186.232 0 0 1 46.073 26.409v-2.584a189.15 189.15 0 0 0-45.355-25.835c-41.193-15.788-88.126-11.626-128.888 11.482C57.411 191.894 21.816 246.721 7.75 317.624A73.729 73.729 0 0 1 0 338.723z" class="cls-2" transform="translate(4.736 -121.842)"/>
            <path id="Path_4052" d="M2.153 379.564a74.089 74.089 0 0 0 7.176-19.376c14.64-67.458 49.661-119.846 98.6-147.4 39.757-22.534 85.973-26.84 126.592-11.913a189.249 189.249 0 0 1 46.216 25.692v-2.587a190.284 190.284 0 0 0-45.5-25.117c-41.187-15.214-87.977-10.763-128.309 12.056C57.411 238.763 22.1 291.725 7.32 359.758A75.438 75.438 0 0 1 0 379.564z" class="cls-2" transform="translate(6.315 -162.684)"/>
            <path id="Path_4053" d="M2.3 461.125a87.343 87.343 0 0 0 6.315-16.506c15.932-62.291 50.522-110.947 97.456-136.926 39.183-21.816 84.682-26.409 125.013-12.63a191.214 191.214 0 0 1 46.647 23.969v-2.3a188.361 188.361 0 0 0-45.931-23.678l-.431 1 .431-1c-40.906-13.922-87.122-9.186-126.735 12.774C57.7 332.093 22.677 381.18 6.6 444.045a81.145 81.145 0 0 1-6.6 17.08z" class="cls-2" transform="translate(9.329 -244.244)"/>
            <path id="Path_4054" d="M2.44 501.958a99.6 99.6 0 0 0 5.885-15.07c16.649-59.708 50.952-106.5 96.881-131.615 38.753-21.386 84.107-26.122 124.3-13.061l.287-1-.287 1a185.5 185.5 0 0 1 46.79 23.4v-2.583a195.2 195.2 0 0 0-46.22-22.829c-40.762-13.2-86.691-8.468-125.874 13.2-46.36 25.4-81.093 72.625-97.886 132.907A79.258 79.258 0 0 1 0 501.958z" class="cls-2" transform="translate(10.765 -285.077)"/>
            <path id="Path_4055" d="M2.3 542.7a104.371 104.371 0 0 0 5.6-13.635c37.317-123.434 141.088-164.053 219.885-139.8l.287-1-.287 1c16.649 5.167 32.294 13.061 46.934 22.534v-2.44a191.1 191.1 0 0 0-46.36-22.1C148.7 362.574 43.633 403.767 5.885 528.349A85.815 85.815 0 0 1 0 542.7z" class="cls-2" transform="translate(12.343 -325.821)"/>
            <path id="Path_4056" d="M2.3 582.6a84.118 84.118 0 0 0 5.167-12.2c17.654-54.11 49.8-95.446 92.863-119.559 39.327-22.1 83.964-27.557 125.587-15.358a193.112 193.112 0 0 1 47.221 21.673v-2.44a187.985 187.985 0 0 0-46.647-21.242l-.287 1 .287-1c-42.2-12.343-87.409-6.889-127.166 15.5C55.832 473.37 23.4 515.137 5.454 569.678A79.247 79.247 0 0 1 0 582.6z" class="cls-2" transform="translate(13.922 -365.715)"/>
            <path id="Path_4057" d="M2.3 704.16a81.648 81.648 0 0 0 3.732-8.038C44.924 603.978 133.051 554.6 220.6 576.133a186.64 186.64 0 0 1 47.8 18.946v-2.44a201.117 201.117 0 0 0-47.221-18.659C132.62 552.307 43.345 602.112 4.162 695.405 2.871 698.419 1.579 701.29 0 704.16z" class="cls-2" transform="translate(18.659 -487.279)"/>
            <path id="Path_4058" d="M2.44 745.583c1.148-2.153 2.153-4.306 3.158-6.6 20.381-44.639 52.387-79.083 92.432-99.611 37.6-19.233 80.519-24.83 120.851-15.5l.287-1-.287 1a198.509 198.509 0 0 1 47.938 17.941v-2.44a200.731 200.731 0 0 0-47.508-17.654c-40.762-9.329-84.251-3.732-122.286 15.788C56.694 658.318 24.4 693.052 3.732 738.12A72.39 72.39 0 0 1 0 745.583z" class="cls-2" transform="translate(20.237 -528.702)"/>
            <path id="Path_4059" d="M2.3 785.52c1-1.722 1.866-3.445 2.727-5.167 41.763-83.964 127.019-128.314 211.987-110.23l.144-1-.144 1A197.226 197.226 0 0 1 265.1 687.06v-2.44a205.989 205.989 0 0 0-47.651-16.649C131.472 649.742 45.5 694.523 3.158 779.492c-1 2.01-2.009 4.019-3.158 6.028z" class="cls-2" transform="translate(21.96 -568.639)"/>
            <path id="Path_4060" d="M2.44 826.274c.574-1.292 1.292-2.44 2.009-3.732 21.673-39.9 53.392-70.9 92-89.705a187.617 187.617 0 0 1 118.7-15.645 208.349 208.349 0 0 1 48.225 15.788v-2.3a217.685 217.685 0 0 0-47.938-15.645l-.144 1.148.144-1.148A189.4 189.4 0 0 0 95.59 730.971c-38.9 18.946-71.046 50.235-93.006 90.566L0 826.274z" class="cls-2" transform="translate(23.682 -609.393)"/>
            <path id="Path_4061" d="M210.986 810.954a221.783 221.783 0 0 1 48.656 14.066v-2.3a216.88 216.88 0 0 0-48.369-13.92A205.165 205.165 0 0 0 93.58 824.876C56.263 841.956 24.4 869.8 1.292 905.4c-.431.713-.861 1.287-1.292 2h2.44l.574-.861c22.821-35.308 54.4-62.865 91.427-79.8a203.41 203.41 0 0 1 116.545-15.788z" class="cls-2" transform="translate(27.414 -690.524)"/>
            <path id="Path_4062" d="M208.833 857.346a225.135 225.135 0 0 1 48.8 13.061v-2.3a230.717 230.717 0 0 0-48.512-12.917C128.745 843.711 48.8 878.875.431 946.907l-.431.574h2.583c47.938-67.028 127.022-101.474 206.25-90.135z" class="cls-2" transform="translate(29.423 -730.601)"/>
            <path id="Path_4063" d="M203.666 950.467a231.374 231.374 0 0 1 49.23 10.908v-2.3a239.51 239.51 0 0 0-48.943-10.621C124.582 939.7 50.091 971.709 0 1027.972h2.727C52.388 973 125.731 941.855 203.666 950.467z" class="cls-2" transform="translate(34.16 -811.091)"/>
            <path id="Path_4064" d="M287.995 1473.864a160.973 160.973 0 0 0-59.995 4.449h8.325a157.916 157.916 0 0 1 51.527-2.583 150.006 150.006 0 0 1 16.075 2.583h8.181a146.073 146.073 0 0 0-24.113-4.449z" class="cls-3" transform="translate(-57.776 -1261.433)"/>
            <path id="Path_4065" d="M158.385 1425.489A167.287 167.287 0 0 0 76 1436.828h5.311a166.273 166.273 0 0 1 76.931-9.473 168.089 168.089 0 0 1 40.044 9.473h5.314a168.545 168.545 0 0 0-45.215-11.339z" class="cls-3" transform="translate(72.552 -1219.947)"/>
            <path id="Path_4066" d="M114.535 1329.259A182.4 182.4 0 0 0 0 1354.376h3.875a181.533 181.533 0 0 1 110.517-23.251 183.4 183.4 0 0 1 54.828 14.927v-2.009a182.324 182.324 0 0 0-54.685-14.784z" class="cls-3" transform="translate(117.837 -1137.495)"/>
            <path id="Path_4067" d="M152.14 1184.826C95.3 1178.655 41.336 1196.6 0 1230.612h3.014c40.618-32.724 93.437-49.948 148.982-43.776a199.577 199.577 0 0 1 52.675 13.061v-2.009a205.711 205.711 0 0 0-52.531-13.062z" class="cls-3" transform="translate(82.385 -1013.731)"/>
            <path id="Path_4068" d="M174.243 1089.042c-60.712-6.746-118.267 12.487-162.33 48.943-4.162 3.3-8.038 6.746-11.913 10.477h2.871c3.3-3.157 6.6-6.172 10.191-9.042a214.6 214.6 0 0 1 161.038-48.512 224.2 224.2 0 0 1 51.24 12.056v-2.01a215.555 215.555 0 0 0-51.097-11.912z" class="cls-3" transform="translate(61.717 -931.582)"/>
        </g>
        <g id="Group_1533">
            <path id="Path_4069" d="M2.3 216.813a68.815 68.815 0 0 0 8.755-24.974c11.769-78.51 47.795-138.5 101.474-169.22 40.762-23.4 88.987-27.127 129.032-9.76 16.506 7.033 31.576 16.936 45.5 28.562v-2.727c-13.779-11.2-28.562-20.812-44.781-27.844-40.618-17.51-89.418-13.779-130.754 9.9-54.254 31-90.566 91.714-102.479 170.8A67.05 67.05 0 0 1 0 216.813z" class="cls-2" transform="translate(0 0.068)"/>
            <path id="Path_4070" d="M2.3 256.615a67.425 67.425 0 0 0 8.325-23.539C23.108 157.437 58.99 99.165 111.378 69.311c40.906-23.539 87.7-27.27 128.458-10.334 16.506 6.889 31.576 16.506 45.642 27.844v-2.583a191.738 191.738 0 0 0-44.924-27.27c-41.193-17.08-88.7-13.348-130.18 10.478-52.963 30.283-89.132 88.986-101.762 165.2A67.912 67.912 0 0 1 0 256.615z" class="cls-2" transform="translate(1.579 -39.734)"/>
            <path id="Path_4071" d="M2.3 297.53a76.179 76.179 0 0 0 7.894-22.1c13.2-73.056 48.8-129.175 99.9-158.455 40.762-23.108 87.265-26.983 127.884-10.765a189.825 189.825 0 0 1 45.922 27.124v-2.583a186.108 186.108 0 0 0-45.213-26.551c-41.193-16.506-88.413-12.487-129.462 11.052C57.411 144.673 21.529 201.366 8.181 275A72.434 72.434 0 0 1 0 297.53z" class="cls-2" transform="translate(3.158 -80.649)"/>
            <path id="Path_4072" d="M2.3 338.723a76.721 76.721 0 0 0 7.46-20.668c13.922-70.329 49.23-124.582 99.178-153 40.331-22.821 86.691-26.983 127.309-11.339a186.232 186.232 0 0 1 46.073 26.409v-2.584a189.15 189.15 0 0 0-45.355-25.835c-41.193-15.788-88.126-11.626-128.888 11.482C57.411 191.894 21.816 246.721 7.75 317.624A73.729 73.729 0 0 1 0 338.723z" class="cls-2" transform="translate(4.736 -121.842)"/>
            <path id="Path_4073" d="M2.153 379.564a74.089 74.089 0 0 0 7.176-19.376c14.64-67.458 49.661-119.846 98.6-147.4 39.757-22.534 85.973-26.84 126.592-11.913a189.249 189.249 0 0 1 46.216 25.692v-2.587a190.284 190.284 0 0 0-45.5-25.117c-41.187-15.214-87.977-10.763-128.309 12.056C57.411 238.763 22.1 291.725 7.32 359.758A75.438 75.438 0 0 1 0 379.564z" class="cls-2" transform="translate(6.315 -162.684)"/>
            <path id="Path_4074" d="M2.3 461.125a87.343 87.343 0 0 0 6.315-16.506c15.932-62.291 50.522-110.947 97.456-136.926 39.183-21.816 84.682-26.409 125.013-12.63a191.214 191.214 0 0 1 46.647 23.969v-2.3a188.361 188.361 0 0 0-45.931-23.678l-.431 1 .431-1c-40.906-13.922-87.122-9.186-126.735 12.774C57.7 332.093 22.677 381.18 6.6 444.045a81.145 81.145 0 0 1-6.6 17.08z" class="cls-2" transform="translate(9.329 -244.244)"/>
            <path id="Path_4075" d="M2.44 501.958a99.6 99.6 0 0 0 5.885-15.07c16.649-59.708 50.952-106.5 96.881-131.615 38.753-21.386 84.107-26.122 124.3-13.061l.287-1-.287 1a185.5 185.5 0 0 1 46.79 23.4v-2.583a195.2 195.2 0 0 0-46.22-22.829c-40.762-13.2-86.691-8.468-125.874 13.2-46.36 25.4-81.093 72.625-97.886 132.907A79.258 79.258 0 0 1 0 501.958z" class="cls-2" transform="translate(10.765 -285.077)"/>
            <path id="Path_4076" d="M2.3 542.7a104.371 104.371 0 0 0 5.6-13.635c37.317-123.434 141.088-164.053 219.885-139.8l.287-1-.287 1c16.649 5.167 32.294 13.061 46.934 22.534v-2.44a191.1 191.1 0 0 0-46.36-22.1C148.7 362.574 43.633 403.767 5.885 528.349A85.815 85.815 0 0 1 0 542.7z" class="cls-2" transform="translate(12.343 -325.821)"/>
            <path id="Path_4077" d="M2.3 582.6a84.118 84.118 0 0 0 5.167-12.2c17.654-54.11 49.8-95.446 92.863-119.559 39.327-22.1 83.964-27.557 125.587-15.358a193.112 193.112 0 0 1 47.221 21.673v-2.44a187.985 187.985 0 0 0-46.647-21.242l-.287 1 .287-1c-42.2-12.343-87.409-6.889-127.166 15.5C55.832 473.37 23.4 515.137 5.454 569.678A79.247 79.247 0 0 1 0 582.6z" class="cls-2" transform="translate(13.922 -365.715)"/>
            <path id="Path_4078" d="M2.3 704.16a81.648 81.648 0 0 0 3.732-8.038C44.924 603.978 133.051 554.6 220.6 576.133a186.64 186.64 0 0 1 47.8 18.946v-2.44a201.117 201.117 0 0 0-47.221-18.659C132.62 552.307 43.345 602.112 4.162 695.405 2.871 698.419 1.579 701.29 0 704.16z" class="cls-2" transform="translate(18.659 -487.279)"/>
            <path id="Path_4079" d="M2.44 745.583c1.148-2.153 2.153-4.306 3.158-6.6 20.381-44.639 52.387-79.083 92.432-99.611 37.6-19.233 80.519-24.83 120.851-15.5l.287-1-.287 1a198.509 198.509 0 0 1 47.938 17.941v-2.44a200.731 200.731 0 0 0-47.508-17.654c-40.762-9.329-84.251-3.732-122.286 15.788C56.694 658.318 24.4 693.052 3.732 738.12A72.39 72.39 0 0 1 0 745.583z" class="cls-2" transform="translate(20.237 -528.702)"/>
            <path id="Path_4080" d="M2.3 785.52c1-1.722 1.866-3.445 2.727-5.167 41.763-83.964 127.019-128.314 211.987-110.23l.144-1-.144 1A197.226 197.226 0 0 1 265.1 687.06v-2.44a205.989 205.989 0 0 0-47.651-16.649C131.472 649.742 45.5 694.523 3.158 779.492c-1 2.01-2.009 4.019-3.158 6.028z" class="cls-2" transform="translate(21.96 -568.639)"/>
            <path id="Path_4081" d="M2.44 826.274c.574-1.292 1.292-2.44 2.009-3.732 21.673-39.9 53.392-70.9 92-89.705a187.617 187.617 0 0 1 118.7-15.645 208.349 208.349 0 0 1 48.225 15.788v-2.3a217.685 217.685 0 0 0-47.938-15.645l-.144 1.148.144-1.148A189.4 189.4 0 0 0 95.59 730.971c-38.9 18.946-71.046 50.235-93.006 90.566L0 826.274z" class="cls-2" transform="translate(23.682 -609.393)"/>
            <path id="Path_4082" d="M210.986 810.954a221.783 221.783 0 0 1 48.656 14.066v-2.3a216.88 216.88 0 0 0-48.369-13.92A205.165 205.165 0 0 0 93.58 824.876C56.263 841.956 24.4 869.8 1.292 905.4c-.431.713-.861 1.287-1.292 2h2.44l.574-.861c22.821-35.308 54.4-62.865 91.427-79.8a203.41 203.41 0 0 1 116.545-15.788z" class="cls-2" transform="translate(27.414 -690.524)"/>
            <path id="Path_4083" d="M208.833 857.346a225.135 225.135 0 0 1 48.8 13.061v-2.3a230.717 230.717 0 0 0-48.512-12.917C128.745 843.711 48.8 878.875.431 946.907l-.431.574h2.583c47.938-67.028 127.022-101.474 206.25-90.135z" class="cls-2" transform="translate(29.423 -730.601)"/>
            <path id="Path_4084" d="M203.666 950.467a231.374 231.374 0 0 1 49.23 10.908v-2.3a239.51 239.51 0 0 0-48.943-10.621C124.582 939.7 50.091 971.709 0 1027.972h2.727C52.388 973 125.731 941.855 203.666 950.467z" class="cls-2" transform="translate(34.16 -811.091)"/>
            <path id="Path_4085" d="M287.995 1473.864a160.973 160.973 0 0 0-59.995 4.449h8.325a157.916 157.916 0 0 1 51.527-2.583 150.006 150.006 0 0 1 16.075 2.583h8.181a146.073 146.073 0 0 0-24.113-4.449z" class="cls-3" transform="translate(-57.776 -1261.433)"/>
            <path id="Path_4086" d="M158.385 1425.489A167.287 167.287 0 0 0 76 1436.828h5.311a166.273 166.273 0 0 1 76.931-9.473 168.089 168.089 0 0 1 40.044 9.473h5.314a168.545 168.545 0 0 0-45.215-11.339z" class="cls-3" transform="translate(72.552 -1219.947)"/>
            <path id="Path_4087" d="M114.535 1329.259A182.4 182.4 0 0 0 0 1354.376h3.875a181.533 181.533 0 0 1 110.517-23.251 183.4 183.4 0 0 1 54.828 14.927v-2.009a182.324 182.324 0 0 0-54.685-14.784z" class="cls-3" transform="translate(117.837 -1137.495)"/>
            <path id="Path_4088" d="M152.14 1184.826C95.3 1178.655 41.336 1196.6 0 1230.612h3.014c40.618-32.724 93.437-49.948 148.982-43.776a199.577 199.577 0 0 1 52.675 13.061v-2.009a205.711 205.711 0 0 0-52.531-13.062z" class="cls-3" transform="translate(82.385 -1013.731)"/>
            <path id="Path_4089" d="M174.243 1089.042c-60.712-6.746-118.267 12.487-162.33 48.943-4.162 3.3-8.038 6.746-11.913 10.477h2.871c3.3-3.157 6.6-6.172 10.191-9.042a214.6 214.6 0 0 1 161.038-48.512 224.2 224.2 0 0 1 51.24 12.056v-2.01a215.555 215.555 0 0 0-51.097-11.912z" class="cls-3" transform="translate(61.717 -931.582)"/>
        </g>
    </g>
</svg>
