<svg xmlns="http://www.w3.org/2000/svg" width="56" height="56" viewBox="0 0 56 56">
    <g fill-rule="evenodd">
        <path fill="#8a6b41" d="M151.664 130.464l-10.92 7.168v22.4l10.92 7.168zm-18.816 25.984v1.9a1.01 1.01 0 0 1-2.016 0v-1.9a4.441 4.441 0 0 1-3.416-4.312 1.009 1.009 0 0 1 2.016 0 2.475 2.475 0 0 0 2.408 2.464 2.4 2.4 0 0 0 2.408-2.464 2.371 2.371 0 0 0-.672-1.68c-.84-.84-1.4-.616-2.464-.784a4.292 4.292 0 0 1-3.64-3.92 4.4 4.4 0 0 1 3.36-4.7v-1.736a1.01 1.01 0 0 1 2.016 0v1.736a4.441 4.441 0 0 1 3.416 4.312 1.009 1.009 0 0 1-2.016 0 2.424 2.424 0 1 0-4.144 1.68 2.612 2.612 0 0 0 1.12.672c.392.056.784.056 1.176.112a3.8 3.8 0 0 1 2.352 1.064 4.3 4.3 0 0 1 1.456 2.856 4.4 4.4 0 0 1-3.36 4.7zm10.92-9.576a.993.993 0 0 0-1.008.952v3.976a1 1 0 0 0 1.008 1.008.993.993 0 0 0 .952-1.008v-3.976a.981.981 0 0 0-.952-.952zm-23.8 0a.993.993 0 0 0-1.008.952v3.976a1 1 0 0 0 1.008 1.008.993.993 0 0 0 .952-1.008v-3.976a.981.981 0 0 0-.952-.952zm18.816-9.8a1.255 1.255 0 0 1 .672-1.064c.28-.224.672-.448.952-.672l8.12-5.32h-33.376l8.12 5.32c.28.224.672.448.952.672a1.255 1.255 0 0 1 .672 1.064v23.52a1.255 1.255 0 0 1-.672 1.064c-.28.224-.672.448-.952.672l-8.12 5.32h33.376l-8.12-5.32c-.28-.224-.672-.448-.952-.672a1.255 1.255 0 0 1-.672-1.064zM152.672 128a1.041 1.041 0 0 1 1.008 1.008v39.648a1.041 1.041 0 0 1-1.008 1.008h-41.664a1.041 1.041 0 0 1-1.008-1.008v-39.648a1.041 1.041 0 0 1 1.008-1.008zm-40.656 2.464l10.92 7.168v22.4l-10.92 7.168z" transform="translate(-103.84 -120.832)"/>
        <path fill="none" d="M0 0h56v56H0z"/>
    </g>
</svg>
