<svg xmlns="http://www.w3.org/2000/svg" width="56" height="56" viewBox="0 0 56 56">
    <g>
        <path fill="#8a6b41" d="M165.688 146.736v-18.984a4.918 4.918 0 0 0 3.976-4.816 14.938 14.938 0 0 0-.616-4.2l-1.96-6.608a3.061 3.061 0 0 0-2.856-2.128h-30.8a3.061 3.061 0 0 0-2.856 2.128l-1.96 6.608a14.938 14.938 0 0 0-.616 4.2 4.918 4.918 0 0 0 3.976 4.816v18.984a2.952 2.952 0 0 0-2.968 2.968v.952a3 3 0 0 0 2.968 3.024h33.712a3 3 0 0 0 2.968-3.024v-.956a2.952 2.952 0 0 0-2.968-2.964zm-35.672-23.8a13.283 13.283 0 0 1 .5-3.64l1.96-6.608a1.03 1.03 0 0 1 .952-.672h30.8a1.03 1.03 0 0 1 .952.672l1.96 6.608a13.283 13.283 0 0 1 .5 3.64 2.952 2.952 0 0 1-2.968 2.968 2.988 2.988 0 0 1-2.968-2.968v-2.016a.993.993 0 0 0-.952-1.008 1 1 0 0 0-1.008 1.008v2.016a2.988 2.988 0 0 1-2.968 2.968 2.952 2.952 0 0 1-2.968-2.968v-2.016a1.008 1.008 0 0 0-2.016 0v2.016a2.968 2.968 0 0 1-5.936 0v-2.016a1.008 1.008 0 0 0-2.016 0v2.016a2.952 2.952 0 0 1-2.968 2.968 2.988 2.988 0 0 1-2.968-2.968v-2.016a.993.993 0 0 0-.952-1.008 1 1 0 0 0-1.008 1.008v2.016a2.988 2.988 0 0 1-2.968 2.968 2.952 2.952 0 0 1-2.96-2.968zm3.92 4.816a4.742 4.742 0 0 0 3.024-1.9 4.731 4.731 0 0 0 3.92 2.016 4.832 4.832 0 0 0 3.976-2.016 4.929 4.929 0 0 0 7.952 0 4.832 4.832 0 0 0 3.976 2.016 4.908 4.908 0 0 0 3.976-2.016 4.487 4.487 0 0 0 2.968 1.9v18.984h-8.96v-9.912a3 3 0 0 0-2.968-3.024h-5.936a3 3 0 0 0-2.968 3.024v9.912h-8.96zm18.872 18.984h-7.952v-9.912a1 1 0 0 1 1.008-1.008h5.936a1 1 0 0 1 1.008 1.008zm13.888 3.92a1 1 0 0 1-1.008 1.008h-33.712a1 1 0 0 1-1.008-1.008v-.956a1 1 0 0 1 1.008-1.008h33.712a1 1 0 0 1 1.012 1.008z" transform="translate(-120.832 -103.84)"/>
        <path fill="none" fill-rule="evenodd" d="M0 0h56v56H0z"/>
    </g>
</svg>
