<svg xmlns="http://www.w3.org/2000/svg" width="56" height="56" viewBox="0 0 56 56">
    <g fill-rule="evenodd">
        <path fill="#8a6b41" d="M116.08 129H73.968a3.025 3.025 0 0 0 0 6.048v27.1a1 1 0 0 0 1.008 1.008h8.96l-6.1 7.616A.926.926 0 0 0 78 172.12a.98.98 0 0 0 1.4-.112l7.056-8.848h7.56v3.528a3.029 3.029 0 1 0 2.016 0v-3.528h7.56l7.056 8.848a.98.98 0 0 0 1.4.112.926.926 0 0 0 .168-1.344l-6.1-7.616h8.96a1 1 0 0 0 1.008-1.008v-27.1a3.025 3.025 0 0 0 0-6.048zm-23.072 21.112c-2.24 0-3.976 1.288-3.976 2.968 0 1.736 1.736 3.024 3.976 3.024s4.032-1.288 4.032-3.024v-10.864a3.121 3.121 0 0 1 1.96 2.856v2.016a1.008 1.008 0 1 0 2.016 0v-2.016a5 5 0 0 0-4.984-4.984.993.993 0 0 0-1.008.952v9.46a4.631 4.631 0 0 0-2.016-.392zm0 3.976c-1.176 0-1.96-.56-1.96-1.008 0-.392.784-1.008 1.96-1.008 1.232 0 2.016.616 2.016 1.008 0 .448-.784 1.008-2.016 1.008zm2.016 16.412a1.008 1.008 0 1 1 1.008-1.008 1 1 0 0 1-1.008 1.008zm19.04-9.352h-38.08v-26.1h38.08zm2.016-28.112H73.968a1.008 1.008 0 1 1 0-2.016h42.112a1.008 1.008 0 0 1 0 2.016z" transform="translate(-67.024 -121.776)"/>
        <path fill="none" d="M0 0h56v56H0z"/>
    </g>
</svg>
