<svg xmlns="http://www.w3.org/2000/svg" width="56" height="56" viewBox="0 0 56 56">
    <g fill-rule="evenodd">
        <path fill="#8a6b41" d="M153.08 165.376a4.331 4.331 0 0 1-3.36 1.624h-9.632a.383.383 0 0 1-.392-.392v-.28h-3.808a.383.383 0 0 1-.392-.392v-.392h-7.9a.479.479 0 0 1-.336-.168l-1.68-2.408a.339.339 0 0 1 0-.448l1.68-2.352a.339.339 0 0 1 .34-.168h7.9v-.392a.383.383 0 0 1 .392-.392h3.808v-.28a.383.383 0 0 1 .392-.392h9.632a4.164 4.164 0 0 1 3.36 1.624h3.3a5.852 5.852 0 1 0 0-11.7h-2.128l-1.456 1.344.952 5.376a1.61 1.61 0 0 1-2.352 1.624l-4.928-2.52-4.928 2.52a1.61 1.61 0 0 1-2.352-1.624l.952-5.376-1.456-1.344h-2.3a10.92 10.92 0 0 1 0-21.84h3.472a4.22 4.22 0 0 1 3.3-1.624h9.64a.383.383 0 0 1 .392.392v.28h3.864a.421.421 0 0 1 .392.392v.392h7.9a.476.476 0 0 1 .28.168l1.736 2.408a.613.613 0 0 1 0 .448l-1.736 2.352a.308.308 0 0 1-.28.168h-7.9v.392a.383.383 0 0 1-.392.392h-3.864v.28a.383.383 0 0 1-.392.392h-9.632a4.059 4.059 0 0 1-3.3-1.624h-3.472a5.712 5.712 0 0 0 0 11.424 45.114 45.114 0 0 0 6.16-.728l2.464-4.872a1.682 1.682 0 0 1 2.912 0l2.464 4.872c2.464.336 4.424.56 6.888.728a11.078 11.078 0 0 1-.9 22.12zm1.736-20.216l-5.712-.784-2.632-5.152-2.632 5.152-5.656.784v.056l4.088 3.864-.952 5.6 5.152-2.632 5.152 2.632-.952-5.6zm1.512 1.288h.056a7.84 7.84 0 0 1 0 15.68h-2.576v1.232h2.576a9.063 9.063 0 0 0 .84-18.088 2.305 2.305 0 0 1-.896 1.176zm-19.712 0c-.392-.392-.84-.672-.952-1.288h-.336a7.681 7.681 0 0 1 1.064-15.288h2.688v-1.232h-2.688a8.9 8.9 0 0 0 0 17.808zm5.1 14.056v4.48h8.008a2.24 2.24 0 0 0 0-4.48zm-2.016.672h-2.24v3.136h2.24zm-11.312.784l-.5.784.5.784h7.112v-1.568zm36.12-31.92l.56-.784-.56-.784h-7.056v1.568zm-9.072.784v-3.136h-2.24v3.136zm-4.2-3.808h-8.064c-2.912 0-2.968 4.48 0 4.48h8.064z" transform="translate(-118.472 -118)"/>
        <path fill="none" d="M0 0h56v56H0z"/>
    </g>
</svg>
