<svg xmlns="http://www.w3.org/2000/svg" id="Layer_x0020_1" width="28" height="28" viewBox="0 0 28 28">
    <defs>
        <style>
            .cls-1{fill:#4b4a4c}
        </style>
    </defs>
    <g id="_2137561731568" transform="translate(0 0)">
        <g id="Group_1365" transform="translate(3.493 3.493)">
            <path id="Path_3986" d="M519.2 2400a.816.816 0 0 0-.819.819v4.865a.388.388 0 0 1-.385.385h-16.973a.388.388 0 0 1-.385-.385v-4.865a.819.819 0 0 0-1.638 0v4.865a2.019 2.019 0 0 0 2.023 2.023h16.968a2.019 2.019 0 0 0 2.023-2.023v-4.865a.816.816 0 0 0-.814-.819z" class="cls-1" transform="translate(-499 -2386.693)"/>
            <path id="Path_3987" d="M1034.761 509.185a.819.819 0 0 0-.756-.5h-2.793v-8.869a.82.82 0 0 0-.819-.819h-4.83a.82.82 0 0 0-.819.819v8.869h-2.793a.82.82 0 0 0-.756.5.8.8 0 0 0 .154.882l6.034 6.4a.828.828 0 0 0 1.19 0l6.034-6.4a.8.8 0 0 0 .154-.882zm-6.783 5.516l-4.13-4.375h1.715a.822.822 0 0 0 .826-.819v-8.869h3.178v8.869a.822.822 0 0 0 .826.819h1.715z" class="cls-1" transform="translate(-1017.471 -499)"/>
        </g>
        <path id="Path_3988" fill="none" fill-rule="evenodd" d="M0 0h28v28H0z"/>
    </g>
</svg>
