<svg xmlns="http://www.w3.org/2000/svg" width="28" height="28" viewBox="0 0 28 28">
    <g>
        <path fill="none" fill-rule="evenodd" d="M0 0h28v28H0z"/>
        <path fill="#b6b8bb" d="M518.376 517.976a.388.388 0 0 1-.385.385h-16.968a.388.388 0 0 1-.385-.385v-16.968a.388.388 0 0 1 .385-.385h9.961a.819.819 0 1 0 0-1.638h-9.961a2.02 2.02 0 0 0-2.023 2.023v16.968a2.02 2.02 0 0 0 2.023 2.024h16.968a2.019 2.019 0 0 0 2.023-2.023v-9.961a.819.819 0 1 0-1.638 0zm.724-18.076a3.135 3.135 0 0 0-4.431 0l-7.5 7.511a.79.79 0 0 0-.2.315l-1.631 4.914a.814.814 0 0 0 .518 1.036.763.763 0 0 0 .252.042.8.8 0 0 0 .259-.042l4.914-1.638a.85.85 0 0 0 .322-.2l7.5-7.511a3.131 3.131 0 0 0-.003-4.427zm-1.155 3.276l-7.364 7.364-3.185 1.064 1.064-3.178 7.371-7.364a1.495 1.495 0 0 1 2.114 2.114z" transform="translate(-495.507 -495.492)"/>
    </g>
</svg>
