<svg xmlns="http://www.w3.org/2000/svg" width="28" height="28" viewBox="0 0 28 28">
    <g>
        <g>
            <path fill="none" fill-rule="evenodd" d="M0 0h28v28H0z" transform="translate(0.001) translate(-0.001 0)"/>
            <path fill="#4b4a4c" d="M554.359 514.12a2.6 2.6 0 0 0-.833-1.316 9.6 9.6 0 0 0-3.717-10.213.823.823 0 0 0-.959 1.337 7.971 7.971 0 0 1 3.136 8.26 2.62 2.62 0 0 0-2.695 3.283 2.59 2.59 0 0 0 1.225 1.589 2.628 2.628 0 0 0 3.584-.952 2.6 2.6 0 0 0 .259-1.988zm-1.687 1.162a.98.98 0 0 1-1.337.357.964.964 0 0 1-.455-.588 1.013 1.013 0 0 1 .1-.742.982.982 0 0 1 1.792.238.933.933 0 0 1-.1.735zm-17.346-4.928c.028 0 .056.007.084.007a.826.826 0 0 0 .819-.742 7.989 7.989 0 0 1 5.614-6.839 2.615 2.615 0 1 0-.231-1.638 9.612 9.612 0 0 0-7.021 8.316.823.823 0 0 0 .735.896zm8.862-9.716a.973.973 0 1 1-.98.973.977.977 0 0 1 .98-.973zm3.3 17.024a7.947 7.947 0 0 1-4.977.532 8.048 8.048 0 0 1-3.773-1.953 2.654 2.654 0 0 0 .35-.77 2.628 2.628 0 1 0-1.659 1.792 9.7 9.7 0 0 0 10.738 1.9.822.822 0 1 0-.679-1.5zm-9.989-2.611a.981.981 0 0 1-1.792.231.933.933 0 0 1-.1-.735.948.948 0 0 1 .455-.6.99.99 0 0 1 1.337.357 1.013 1.013 0 0 1 .101.747z" transform="translate(0.001) translate(-0.001 0) translate(-530.188 -495.507)"/>
        </g>
    </g>
</svg>
